<svg width="56" height="41" viewBox="0 0 56 41" fill="none" xmlns="http://www.w3.org/2000/svg">
<mask id="path-1-inside-1_10182_1082" fill="white">
<path d="M12 0.429199C18.625 0.429199 24 5.8042 24 12.4292V24.4292C24 33.3042 16.75 40.4292 8 40.4292C5.75 40.4292 4 38.6792 4 36.4292C4 34.3042 5.75 32.4292 8 32.4292C12.375 32.4292 16 28.9292 16 24.4292V23.8042C14.625 24.1792 13.375 24.4292 12 24.4292C5.25 24.4292 0 19.1792 0 12.4292C0 5.8042 5.25 0.429199 12 0.429199ZM56 12.4292V24.4292C56 33.3042 48.75 40.4292 40 40.4292C37.75 40.4292 36 38.6792 36 36.4292C36 34.3042 37.75 32.4292 40 32.4292C44.375 32.4292 48 28.9292 48 24.4292V23.8042C46.625 24.1792 45.375 24.4292 44 24.4292C37.25 24.4292 32 19.1792 32 12.4292C32 5.8042 37.25 0.429199 44 0.429199C50.625 0.429199 56 5.8042 56 12.4292Z"/>
</mask>
<path d="M16 23.8042H17V22.4949L15.7369 22.8394L16 23.8042ZM48 23.8042H49V22.4949L47.7369 22.8394L48 23.8042ZM12 1.4292C18.0727 1.4292 23 6.35648 23 12.4292H25C25 5.25191 19.1773 -0.570801 12 -0.570801V1.4292ZM23 12.4292V24.4292H25V12.4292H23ZM23 24.4292C23 32.7468 16.2028 39.4292 8 39.4292V41.4292C17.2972 41.4292 25 33.8616 25 24.4292H23ZM8 39.4292C6.30228 39.4292 5 38.1269 5 36.4292H3C3 39.2315 5.19772 41.4292 8 41.4292V39.4292ZM5 36.4292C5 34.8361 6.32245 33.4292 8 33.4292V31.4292C5.17755 31.4292 3 33.7723 3 36.4292H5ZM8 33.4292C12.9171 33.4292 17 29.4916 17 24.4292H15C15 28.3667 11.8329 31.4292 8 31.4292V33.4292ZM17 24.4292V23.8042H15V24.4292H17ZM15.7369 22.8394C14.4011 23.2037 13.2482 23.4292 12 23.4292V25.4292C13.5018 25.4292 14.8489 25.1547 16.2631 24.769L15.7369 22.8394ZM12 23.4292C5.80228 23.4292 1 18.6269 1 12.4292H-1C-1 19.7315 4.69772 25.4292 12 25.4292V23.4292ZM1 12.4292C1 6.34966 5.80908 1.4292 12 1.4292V-0.570801C4.69092 -0.570801 -1 5.25873 -1 12.4292H1ZM55 12.4292V24.4292H57V12.4292H55ZM55 24.4292C55 32.7468 48.2028 39.4292 40 39.4292V41.4292C49.2972 41.4292 57 33.8616 57 24.4292H55ZM40 39.4292C38.3023 39.4292 37 38.1269 37 36.4292H35C35 39.2315 37.1977 41.4292 40 41.4292V39.4292ZM37 36.4292C37 34.8361 38.3224 33.4292 40 33.4292V31.4292C37.1776 31.4292 35 33.7723 35 36.4292H37ZM40 33.4292C44.9171 33.4292 49 29.4916 49 24.4292H47C47 28.3667 43.8329 31.4292 40 31.4292V33.4292ZM49 24.4292V23.8042H47V24.4292H49ZM47.7369 22.8394C46.4011 23.2037 45.2482 23.4292 44 23.4292V25.4292C45.5018 25.4292 46.8489 25.1547 48.2631 24.769L47.7369 22.8394ZM44 23.4292C37.8023 23.4292 33 18.6269 33 12.4292H31C31 19.7315 36.6977 25.4292 44 25.4292V23.4292ZM33 12.4292C33 6.34966 37.8091 1.4292 44 1.4292V-0.570801C36.6909 -0.570801 31 5.25873 31 12.4292H33ZM44 1.4292C50.0727 1.4292 55 6.35648 55 12.4292H57C57 5.25191 51.1773 -0.570801 44 -0.570801V1.4292Z" fill="#0E3311" mask="url(#path-1-inside-1_10182_1082)"/>
</svg>
