<svg width="43" height="45" viewBox="0 0 43 45" fill="none" xmlns="http://www.w3.org/2000/svg">
<path fill-rule="evenodd" clip-rule="evenodd" d="M21.0405 33.0072V34.0889C21.0405 35.5579 22.0139 36.8446 23.4218 37.2488C26.3418 37.9435 31.1902 40.2721 29.6536 43.5573C29.1945 44.4455 28.2763 45.0034 27.2784 45.0034C21.7812 45.0034 8.50345 45.0034 3.26334 45.0034C1.32891 45.0262 -0.00559992 42.9367 0.833061 41.1888C1.45134 39.8736 2.4002 38.974 3.58167 38.3249C4.04691 38.0687 4.62846 38.2395 4.87945 38.7064C5.13044 39.1676 4.96515 39.754 4.49991 40.0045C3.67349 40.46 3.00011 41.0806 2.56548 41.9972C2.32674 42.4983 2.70628 43.0904 3.26334 43.0847H27.2784C27.8845 43.0904 28.264 42.3844 27.9028 41.8834C27.9028 41.8834 27.9028 41.8834 27.9028 41.8777C26.8438 40.3575 25.0257 39.6572 22.926 39.0935C20.5998 38.4502 19.0387 36.2639 19.1306 33.8612C16.7982 34.6868 14.0496 34.6868 11.7173 33.8612V33.8783C11.7173 36.298 10.0461 38.3932 7.68927 38.9398C7.17506 39.0594 6.66084 38.7349 6.53841 38.2224C6.4221 37.71 6.74042 37.1919 7.25464 37.0723C8.74219 36.7307 9.80123 35.3984 9.80123 33.8726C9.80123 33.531 9.80123 33.2235 9.80123 32.9787C2.07575 28.5776 -5.28243 7.08452 9.92366 0.844413C10.5726 0.576817 11.3867 0.491414 12.4886 0.303527C13.7497 0.138415 14.0557 1.92618 12.8131 2.19378C12.1948 2.30196 11.6744 2.3532 11.2337 2.4386C11.0194 2.47846 10.8297 2.524 10.6644 2.60371C10.6338 2.62079 10.6093 2.63218 10.5787 2.64926C10.0032 2.97949 9.74001 3.99293 9.52576 4.74448C10.4868 4.8128 12.3233 5.06332 14.9189 5.95151C15.4209 6.12231 15.6841 6.66889 15.5127 7.16992C15.3413 7.67096 14.7965 7.93855 14.2945 7.76205C11.0011 6.62904 9.09112 6.62904 8.88299 6.63473C8.73607 6.88525 8.57078 7.13576 8.41162 7.3692C8.30143 7.54 8.19124 7.69373 8.1239 7.88162C8.14227 7.893 8.15451 7.91008 8.17288 7.91578C11.1541 9.90282 16.4922 11.0017 20.0304 11.7874C24.4625 12.8179 26.2561 16.2113 27.0825 19.7299C28.5579 13.8257 27.8416 7.05036 21.7935 3.20723C20.5508 2.39305 18.4449 1.9091 15.9779 1.92049C15.4515 1.92049 15.0168 1.49347 15.0168 0.963976C15.0168 0.434478 15.4454 0.00746355 15.9718 0.00177002C20.5447 0.0131571 23.0423 1.23727 25.6317 3.90184C32.8185 11.3148 29.3965 27.957 21.0405 33.0072ZM5.2345 24.3758C8.89523 34.7665 21.971 35.444 25.6807 24.3359C25.6807 21.2045 24.7992 14.6683 19.6142 13.6605C18.5 13.4157 17.0309 13.1026 15.4637 12.7097C13.8966 13.1026 12.4274 13.4157 11.3133 13.6605C6.07929 14.6797 5.24675 21.2728 5.2345 24.3758ZM7.57296 4.66477C2.14309 9.44164 2.74301 15.7045 3.82653 19.838C4.64683 15.9721 6.88122 12.3624 11.6867 11.6166C10.2175 11.1212 8.82789 10.5519 7.70764 9.89143C7.37095 10.216 6.9057 10.7568 6.52004 11.5255C5.90788 12.6357 4.28565 11.8272 4.80599 10.6714C5.27735 9.73201 5.84666 9.0431 6.29966 8.58761C5.94461 7.73928 6.39149 6.90802 6.9057 6.16786C7.11996 5.84903 7.37095 5.52449 7.45053 5.17719C7.49338 4.995 7.53011 4.82419 7.57296 4.66477ZM16.7982 26.8297C17.8573 26.1294 18.9163 27.5983 17.9185 28.384C17.9185 28.384 15.3229 30.2344 12.8926 28.3669C11.9193 27.5528 13.0212 26.1123 14.0619 26.8468C15.3841 27.8659 16.7982 26.8297 16.7982 26.8297ZM8.34428 21.9845C7.56684 20.9767 8.95644 19.8153 9.81347 20.7547C9.81347 20.7547 10.6889 21.7624 11.8214 20.8913C12.2376 20.5668 12.8437 20.6465 13.162 21.0678C13.4864 21.4892 13.4069 22.087 12.9845 22.4115C10.3644 24.4327 8.34428 21.9845 8.34428 21.9845ZM18.5307 19.2174C17.4716 19.9177 16.4126 18.4488 17.4104 17.6631C17.4104 17.6631 20.006 15.8127 22.4362 17.6802C23.4096 18.4944 22.3077 19.9348 21.267 19.2004C19.9447 18.1812 18.5307 19.2174 18.5307 19.2174ZM9.36659 19.2174C8.30755 19.9177 7.24851 18.4488 8.24634 17.6631C8.24634 17.6631 10.8419 15.8127 13.2722 17.6802C14.2455 18.4944 13.1436 19.9348 12.103 19.2004C10.7868 18.1812 9.36659 19.2174 9.36659 19.2174ZM21.0221 20.7547C21.8792 19.8153 23.2688 20.9767 22.4913 21.9845C22.4913 21.9845 20.4712 24.427 17.845 22.4115C17.4288 22.087 17.3492 21.4892 17.6675 21.0678C17.9919 20.6465 18.5919 20.5725 19.0081 20.8913C20.1468 21.7624 21.0221 20.7547 21.0221 20.7547ZM36.5955 34.8576C37.7648 35.3586 37.1159 37.0496 35.916 36.6453C33.5409 35.7401 32.1574 32.2613 34.5448 28.4068C35.0713 27.4844 35.5549 26.6987 34.9917 25.0704C34.8203 24.5694 35.0835 24.0228 35.5855 23.852C36.0874 23.6812 36.6323 23.9431 36.8037 24.4441C37.5077 26.4767 37.1342 27.6382 36.5404 28.7712C36.0936 29.6138 35.4447 30.428 35.261 31.8457C34.9549 34.1516 36.5955 34.8576 36.5955 34.8576ZM31.3309 35.5977C32.5002 36.0988 31.8513 37.7897 30.6514 37.3855C28.2763 36.4802 26.8928 33.0015 29.2802 29.147C29.8067 28.2246 30.2903 27.4389 29.7271 25.8105C29.5557 25.3095 29.8189 24.7629 30.3209 24.5921C30.8229 24.4213 31.3677 24.6832 31.5391 25.1843C32.2431 27.2168 31.8697 28.3783 31.2759 29.5113C30.829 30.354 30.1801 31.1682 29.9964 32.5858C29.6904 34.8917 31.3309 35.5977 31.3309 35.5977ZM41.854 35.5977C43.0232 36.0988 42.3743 37.7897 41.1745 37.3855C41.1745 37.3855 38.1076 36.298 38.6157 32.341C38.8605 30.4223 39.7604 29.4259 40.2746 28.2531C40.5501 27.6211 40.6297 26.9151 40.2501 25.8105C40.0787 25.3095 40.342 24.7629 40.8439 24.5921C41.3459 24.4213 41.8907 24.6832 42.0621 25.1843C42.6621 26.9265 42.4662 28.031 42.0377 29.0217C41.5908 30.0465 40.7399 30.9006 40.5256 32.5858C40.2195 34.8917 41.854 35.5977 41.854 35.5977Z" fill="#0E3311"/>
</svg>
