<svg width="45" height="45" viewBox="0 0 45 45" fill="none" xmlns="http://www.w3.org/2000/svg">
<g clip-path="url(#clip0_10182_82)">
<path fill-rule="evenodd" clip-rule="evenodd" d="M-0.000488281 29.8363C-0.000488281 27.9224 0.426343 26.1187 1.16986 24.4802C1.33508 24.1222 1.69307 23.8881 2.09236 23.8881H4.17144C3.41416 22.9519 2.97356 21.7678 2.97356 20.4873C2.97356 17.6509 5.14902 15.3102 7.93031 15.0761C8.68759 12.9971 10.6841 11.5101 13.0385 11.5101C13.0385 11.5101 20.2809 12.3637 20.8454 8.54978C21.1896 6.20909 19.9367 5.61703 19.9367 5.61703C19.0968 5.32788 19.1656 4.36407 19.5374 3.96478C19.5374 3.96478 21.3135 2.14731 23.489 2.32631C24.439 2.40892 25.4992 2.83573 26.5044 3.99231C28.7487 6.58083 28.4595 9.70634 28.0327 11.4963H31.9843C34.325 11.4963 36.3352 12.9833 37.0925 15.0624C39.8738 15.2965 42.0493 17.6372 42.0493 20.4735C42.0493 21.7678 41.5949 22.9519 40.8514 23.8744H42.9305C43.3298 23.8744 43.6877 24.1085 43.853 24.4665C44.6103 26.0912 45.0233 27.9086 45.0233 29.8225C45.0233 36.8859 39.2955 42.6136 32.2322 42.6136C31.6676 42.6136 31.2133 42.1593 31.2133 41.5948C31.2133 41.0303 31.6676 40.5759 32.2322 40.5759C37.836 40.5759 42.4348 36.2938 42.9442 30.8276H2.07859C2.58803 36.2938 7.20056 40.5759 12.7907 40.5759H24.026C24.5905 40.5759 25.0449 41.0303 25.0449 41.5948C25.0449 42.1593 24.5905 42.6136 24.026 42.6136H12.7907C5.74108 42.6274 -0.000488281 36.8859 -0.000488281 29.8363ZM2.76703 25.9122C2.40904 26.8209 2.17497 27.7985 2.07859 28.8174H42.9442C42.8479 27.7985 42.6138 26.8347 42.2558 25.9122H2.76703ZM36.6106 23.8881C38.4832 23.8881 40.0115 22.3598 40.0115 20.4873C40.0115 17.0313 36.3077 17.0864 36.3077 17.0864C35.8258 17.0864 35.4127 16.7422 35.3164 16.2741C34.5178 12.2536 26.6558 13.5341 26.6558 13.5341C25.9261 13.5341 25.4166 12.7768 25.7333 12.1021C25.7333 12.1021 27.5232 8.24686 24.9898 5.34165C23.7781 3.95101 22.6216 4.30899 21.9331 4.68074C22.236 5.03873 23.2274 6.29169 22.8556 8.85268C22.6216 10.4223 21.6853 11.5238 20.6113 12.2536C17.8025 14.1674 13.0523 13.5478 13.0523 13.5478C11.4 13.5478 10.0232 14.7182 9.70648 16.2878C9.6101 16.7559 9.19704 17.1002 8.71513 17.1002C8.71513 17.1002 5.01133 17.0451 5.01133 20.5011C5.01133 22.3874 6.53966 23.9019 8.41222 23.9019L36.6106 23.8881Z" fill="#0E3311"/>
</g>
<defs>
<clipPath id="clip0_10182_82">
<rect width="45" height="45" fill="white"/>
</clipPath>
</defs>
</svg>
