<svg width="45" height="45" viewBox="0 0 45 45" fill="none" xmlns="http://www.w3.org/2000/svg">
<g clip-path="url(#clip0_10182_104)">
<path fill-rule="evenodd" clip-rule="evenodd" d="M28.2693 32.9673C28.2693 32.9673 27.7613 36.4397 30.65 37.2082C33.049 37.8515 35.1971 38.8135 36.6904 40.7376C37.6145 41.9273 37.1923 43.7774 35.8887 44.5686C35.4725 44.8248 34.9952 44.9557 34.4995 44.9557C26.4945 44.9899 18.4957 45.0639 10.4907 44.9557C8.43438 44.9272 7.28994 42.7982 8.06106 41.1417C8.66082 39.8609 9.6645 38.8761 10.9864 38.1873C11.2006 38.0735 11.4883 38.0507 11.7147 38.1247C11.9534 38.1987 12.1676 38.3866 12.2777 38.5972C12.8408 39.6844 11.2129 40.1854 10.6682 40.7319C10.4234 40.9766 8.85666 43.0373 10.4907 43.043C18.4957 43.0715 26.4945 43.043 34.4995 43.043C35.1482 43.043 35.4542 42.3087 35.1237 41.8419C34.0037 40.248 32.0209 39.5592 30.1481 39.0583C27.8164 38.4378 26.3537 36.2348 26.3537 34.0489C26.3782 33.9806 26.4333 33.8155 26.3537 33.8269C25.6622 33.9179 22.9204 35.1931 18.9424 33.8269C18.9424 33.8269 19.0281 36.6503 16.5373 38.2215C16.1578 38.4606 14.891 39.2177 14.1933 38.7793C13.7343 38.489 13.618 37.897 13.8873 37.4587C14.1443 37.0431 15.2031 36.7927 15.5091 36.6048C17.2839 35.4891 17.0269 33.4739 17.0269 32.9388C10.0623 28.9882 8.31198 17.3528 8.44662 14.034C8.70366 7.63567 13.2386 1.03237 19.7197 0.263884C22.5961 -0.0776659 25.4235 -0.231363 28.2142 0.696514C28.8997 0.924214 31.1579 1.64716 30.344 2.88813C29.6524 3.93555 28.0306 2.62627 27.4125 2.42703C24.9951 1.66424 22.5226 1.85209 20.044 2.1481C19.8359 2.17087 18.2876 2.34165 17.8225 2.59781C17.5532 2.74581 17.1309 3.45738 17.186 3.42891C17.4675 3.26952 17.7123 3.0589 18.0183 2.95074C19.5667 2.39288 21.2068 3.28091 21.6964 4.70403C23.3733 4.83496 25.5214 5.36436 26.9963 5.90515C27.7919 6.19547 27.8654 7.29981 27.1065 7.66983C26.7638 7.83491 23.7405 6.80457 21.6719 6.62241C20.7356 9.16126 16.9289 8.96772 16.2374 6.37194C16.1701 6.49717 15.4051 7.47059 15.3561 7.8406C15.3316 7.9943 17.8347 9.41742 22.9327 10.7495C25.9009 11.5236 29.6769 11.757 31.7149 14.2959C32.2657 14.979 33.5937 16.4647 34.3097 19.681C37.18 7.58444 29.7932 5.47252 31.5068 3.82739C32.5288 2.84259 33.7161 4.81219 34.0405 5.24482C35.0258 6.56548 35.8703 8.15369 36.2437 9.73051C37.9389 16.9144 35.3195 28.9484 28.2693 32.9673ZM18.3243 4.97727C18.2386 5.06266 18.1713 5.16513 18.1223 5.27328C17.7307 6.20685 18.9302 7.02088 19.6523 6.30363C19.738 6.21824 19.8053 6.11577 19.8543 6.00762C20.2521 5.06835 19.0465 4.25433 18.3243 4.97727ZM12.4797 24.2464C14.0403 28.9882 18.6181 33.3487 24.3158 32.3639C25.2154 32.2102 26.0783 31.9313 26.8862 31.5328C29.9033 30.0527 31.7761 27.0926 32.9021 24.2065C32.7369 20.5861 32.1739 16.7721 28.8629 14.4211C27.388 13.3737 23.9486 12.9923 22.6879 12.6735C21.4271 12.9923 17.9877 13.3737 16.5128 14.4211C13.1774 16.7892 12.6755 20.6089 12.4797 24.2464ZM15.5764 21.9466C15.1541 21.4457 15.3622 20.626 16.0293 20.4153C16.831 20.1649 17.1921 21.0927 17.9204 21.1952C18.7343 21.3091 19.3219 20.3299 20.1113 20.7853C20.2705 20.8764 20.5275 21.2407 20.5642 21.3774C20.8519 22.4419 19.2484 23.0623 18.3855 23.1648C17.1493 23.2957 16.0171 22.4646 15.5764 21.9466ZM16.6046 19.1801C15.7233 19.8119 14.7319 18.7076 15.2276 17.9049C16.2007 16.3281 20.656 16.59 20.8763 18.2806C20.9559 18.8897 20.3745 19.5159 19.6829 19.3338C19.1811 19.1971 18.9179 18.662 17.8898 18.7247C17.2472 18.7588 16.6841 19.1174 16.6046 19.1801ZM28.2509 20.717C28.9364 19.8973 30.1849 20.7057 29.9033 21.6108C29.7687 22.032 29.3158 22.3792 28.9425 22.6126C27.8899 23.2787 26.6536 23.347 25.5643 22.7037C25.3072 22.55 24.9829 22.3565 24.8299 22.0889C24.4504 21.4286 25.0441 20.4609 25.907 20.6886C26.3293 20.8024 26.5863 21.144 27.0392 21.2009C27.6512 21.2806 28.2081 20.7683 28.2509 20.717ZM24.0343 26.7852C24.9155 26.1534 25.907 27.2577 25.4113 28.0604C25.1726 28.4418 24.6218 28.6695 24.2056 28.8288C23.1958 29.2046 22.0575 29.307 21.0416 28.863C20.5214 28.6353 19.8421 28.2994 19.7625 27.6903C19.6829 27.0813 20.2643 26.4551 20.9559 26.6372C21.4577 26.7739 21.7209 27.309 22.7491 27.2463C23.3917 27.2065 23.9486 26.8479 24.0343 26.7852ZM25.7601 19.1801C24.8788 19.8119 23.8874 18.7076 24.3831 17.9049C25.3562 16.3281 29.8115 16.59 30.0319 18.2806C30.1114 18.8897 29.53 19.5159 28.8385 19.3338C28.3366 19.1971 28.0735 18.662 27.0453 18.7247C26.4027 18.7588 25.8458 19.1174 25.7601 19.1801ZM11.0599 19.8005C11.6413 17.0909 12.9815 14.2674 15.5825 12.7418C16.6168 12.1327 17.7368 11.8367 18.9179 11.5806C17.4491 11.0853 16.0599 10.5161 14.9399 9.85575C14.3585 10.4193 14.0158 11.6944 13.2019 11.9677C12.29 12.2694 11.7637 11.3073 12.0452 10.6299C12.3083 9.98667 13.0183 9.07018 13.5385 8.54647C12.9693 7.14042 14.4932 5.91654 14.8053 4.62434C9.37686 9.40035 9.97662 15.6678 11.0599 19.8005Z" fill="#0E3311"/>
</g>
<defs>
<clipPath id="clip0_10182_104">
<rect width="45" height="45" fill="white"/>
</clipPath>
</defs>
</svg>
