<svg width="45" height="45" viewBox="0 0 45 45" fill="none" xmlns="http://www.w3.org/2000/svg">
<g clip-path="url(#clip0_10182_39)">
<path fill-rule="evenodd" clip-rule="evenodd" d="M6.92523 4.86457C4.72981 5.06415 5.09571 7.72525 5.09571 7.72525C5.09571 8.30183 4.63001 8.76754 4.05344 8.76754C3.47686 8.76754 3.01116 8.30183 3.01116 7.72525C3.01116 7.72525 2.58982 3.29006 6.61476 2.80219V1.99276C6.61476 0.917226 7.49071 0.0412903 8.56625 0.0412903H16.7048C17.7804 0.0412903 18.6563 0.917226 18.6563 1.99276V3.81121C18.6563 4.88675 17.7804 5.76268 16.7048 5.76268H15.4186V8.09116H15.9398C16.5163 8.09116 16.982 8.55687 16.982 9.13345C16.982 9.71003 16.5163 10.1757 15.9398 10.1757H9.33132C8.07838 10.1757 7.06937 11.1958 7.06937 12.4377V40.7121C7.06937 41.965 8.07838 42.974 9.33132 42.974H15.9398C17.1927 42.974 18.2017 41.965 18.2017 40.7121V12.4377C18.2017 11.8611 18.6674 11.3954 19.244 11.3954C19.8206 11.3954 20.2863 11.8611 20.2863 12.4377V40.7121C20.2863 43.1071 18.3459 45.0586 15.9398 45.0586H9.33132C6.93631 45.0586 4.98483 43.1071 4.98483 40.7121V12.4377C4.98483 10.0426 6.92523 8.09116 9.33132 8.09116H9.85247V5.76268H8.55516C7.87879 5.76268 7.26896 5.40788 6.92523 4.86457ZM8.69931 3.68923H16.5829V2.12581H8.69931V3.68923ZM13.3452 8.09116V5.76268H11.9481V8.09116H13.3452ZM37.7166 23.4813H26.673C25.42 23.4813 24.411 24.5014 24.411 25.7433V40.7121C24.411 41.965 25.42 42.974 26.673 42.974H37.7166C38.2932 42.974 38.7589 43.4397 38.7589 44.0163C38.7589 44.5929 38.2932 45.0586 37.7166 45.0586H26.673C24.2779 45.0586 22.3265 43.1071 22.3265 40.7121V25.7433C22.3265 23.3482 24.2669 21.3968 26.673 21.3968H31.1525V15.3871H25.0208C24.4443 15.3871 23.9786 14.9214 23.9786 14.3448C23.9786 13.7682 24.4443 13.3025 25.0208 13.3025H36.3528C36.63 13.3025 36.8961 13.4134 37.0846 13.6019L40.1005 16.6179C40.5108 17.0281 40.5108 17.6823 40.1005 18.0925C39.6903 18.5028 39.0361 18.5028 38.6258 18.0925L35.9093 15.376H33.226V21.3857H37.7055C40.1005 21.3857 42.052 23.3372 42.052 25.7322V40.701C42.052 41.2775 41.5863 41.7433 41.0097 41.7433C40.4332 41.7433 39.9675 41.2775 39.9675 40.701V25.7322C39.9786 24.4903 38.9695 23.4813 37.7166 23.4813Z" fill="#0E3311"/>
</g>
<defs>
<clipPath id="clip0_10182_39">
<rect width="45" height="45" fill="white"/>
</clipPath>
</defs>
</svg>
