<svg width="45" height="45" viewBox="0 0 45 45" fill="none" xmlns="http://www.w3.org/2000/svg">
<g clip-path="url(#clip0_10182_115)">
<path fill-rule="evenodd" clip-rule="evenodd" d="M6.64368 24.5507H5.86867C5.34024 24.5507 4.90869 24.1215 4.90869 23.5938V18.0554C4.90869 17.5277 5.34024 17.0985 5.86867 17.0985H12.4916V16.5012C12.4916 15.9735 12.9231 15.5443 13.4516 15.5443H25.5261C26.0545 15.5443 26.486 15.9735 26.486 16.5012V17.0985H33.9016C35.161 17.0985 35.1698 19.0123 33.9016 19.0123H26.486V22.6311H38.1907V19.0123H37.3452C36.8168 19.0123 36.3852 18.5831 36.3852 18.0554C36.3852 17.5277 36.8168 17.0985 37.3452 17.0985H39.1418C39.6702 17.0985 40.1018 17.5277 40.1018 18.0554V23.5938C40.1018 24.1215 39.6702 24.5507 39.1418 24.5507H38.3668V39.2694H39.1418C39.6702 39.2694 40.1018 39.6985 40.1018 40.2263V44.0017C40.1018 44.5294 39.6702 44.9585 39.1418 44.9585H33.4701C32.9416 44.9585 32.5101 44.5294 32.5101 44.0017C32.5101 43.4739 32.9416 43.0448 33.4701 43.0448H38.1907V41.1832H6.83745V43.0448H24.8567C25.3852 43.0448 25.8167 43.4739 25.8167 44.0017C25.8167 44.5294 25.3852 44.9585 24.8567 44.9585H5.87747C5.34905 44.9585 4.9175 44.5294 4.9175 44.0017V40.2263C4.9175 39.6985 5.34905 39.2694 5.87747 39.2694H6.6525L6.64368 24.5507ZM12.4916 19.0123H6.82864V22.6311H12.4916V19.0123ZM24.5661 17.4581H14.4027V19.1863H24.5661V17.4581ZM24.5661 28.4014V21.1001H14.4027V28.4014H24.5661ZM36.4557 24.5507H26.486V29.3641C26.486 29.8919 26.0545 30.321 25.5261 30.321H13.4516C12.9231 30.321 12.4916 29.8919 12.4916 29.3641V24.5507H8.55483V30.3906C11.2938 31.0227 11.7782 32.7915 14.3763 31.8926C15.5741 31.4809 16.1906 33.2903 15.0016 33.702C11.6109 34.8793 10.5893 33.0293 8.55483 32.374V39.2752H36.4469V31.3127C35.8392 31.3359 35.1434 31.2315 34.2979 30.9415C33.109 30.5298 33.7255 28.7204 34.9232 29.1321C35.5309 29.3409 36.0241 29.4163 36.4469 29.3931V28.1869C32.6862 26.0237 31.2683 28.7494 31.2683 28.7436C30.8191 29.9267 29.0313 29.2365 29.4805 28.0593C29.4805 28.0593 31.4004 23.791 36.4469 26.0353L36.4557 24.5507ZM23.4036 36.4335C23.8527 37.6108 22.0649 38.2951 21.6157 37.1178C21.6157 37.1178 20.9112 35.4824 18.6037 35.7782C15.7062 36.1551 15.0192 38.6373 11.2058 37.3208C10.0168 36.9091 10.6333 35.0997 11.8311 35.5114C14.6846 36.4973 15.0545 34.3052 18.3659 33.8818C22.3115 33.3657 23.4036 36.4335 23.4036 36.4335ZM27.9216 11.0266C29.1018 11.4732 28.4236 13.2652 27.2347 12.8128C27.2347 12.8128 24.1698 11.7283 24.6806 7.76738C25.1121 4.40956 27.2875 4.0674 26.3099 1.23733C25.896 0.0542608 27.7014 -0.583669 28.1154 0.610994C29.4364 4.43856 26.944 5.12868 26.5741 8.01095C26.2835 10.3191 27.9216 11.0266 27.9216 11.0266ZM22.655 11.7689C23.8351 12.2213 23.157 14.0075 21.9768 13.5551C21.9768 13.5551 18.912 12.4706 19.4228 8.5097C19.8543 5.14608 22.0297 4.80971 21.0521 1.97964C20.6381 0.784973 22.4436 0.158649 22.8575 1.35331C24.1874 5.18088 21.6862 5.8768 21.3163 8.75327C21.0169 11.0614 22.655 11.7689 22.655 11.7689ZM33.1882 11.7689C34.3684 12.2213 33.6814 14.0075 32.5101 13.5551C32.5101 13.5551 29.4452 12.4706 29.956 8.5097C30.3876 5.20987 32.5717 4.83291 31.5854 1.97964C31.1714 0.784973 32.9857 0.158649 33.3908 1.35331C34.7031 5.16348 32.2283 5.8594 31.8496 8.75327C31.5501 11.0614 33.1882 11.7689 33.1882 11.7689Z" fill="#0E3311"/>
</g>
<defs>
<clipPath id="clip0_10182_115">
<rect width="45" height="45" fill="white"/>
</clipPath>
</defs>
</svg>
