<svg width="45" height="45" viewBox="0 0 45 45" fill="none" xmlns="http://www.w3.org/2000/svg">
<g clip-path="url(#clip0_10182_28)">
<path fill-rule="evenodd" clip-rule="evenodd" d="M12.5621 27.8021C8.2654 27.5852 6.50248 21.3669 11.0084 19.8207C10.9905 16.9729 11.6657 14.47 12.8311 12.4677C10.5423 8.93026 13.9725 4.45841 17.9884 5.75992C19.6915 1.91658 22.2134 3.92446 20.7552 5.25378C20.1039 5.68205 19.6557 6.39955 19.6019 7.22829C19.578 7.57869 19.3688 7.8846 19.0521 8.03478C18.7354 8.18495 18.3648 8.14602 18.084 7.94578C14.2235 5.54856 12.1199 12.3008 16.584 12.5901C17.9405 12.5901 19.0521 11.5333 19.1417 10.1984C19.1656 9.46977 20.08 9.03594 20.6596 9.48646C21.3767 10.0315 22.4883 10.1261 23.301 9.70338C23.9165 9.38634 24.6755 9.84243 24.6874 10.5321C24.789 13.0906 28.1236 13.9472 29.4503 11.7724C29.7133 11.3164 30.3407 11.1662 30.783 11.4554C31.4822 11.9171 32.516 11.9727 33.269 11.5833C36.4303 10.0037 33.7829 5.29271 30.7949 7.0948C30.0419 7.56201 29.1097 6.83338 29.3726 5.99352C30.3527 2.60626 26.0918 0.348092 23.8448 3.02341C23.5102 3.435 22.9066 3.49618 22.4943 3.16246C20.3608 0.270224 30.7172 -2.87787 31.4224 4.84219C35.9582 4.15806 38.4621 9.83686 34.9781 12.7291C36.0538 14.6869 36.6693 17.1064 36.6514 19.8318C41.0916 21.4058 39.3406 27.5518 35.0917 27.8021V38.687C36.8068 39.6269 38.7968 41.4568 37.739 43.5481C37.2849 44.4548 36.3586 45.0221 35.3427 45.0221C29.9404 45.0221 25.7751 45.0221 20.6297 45.0221C19.3628 44.972 19.3509 43.1588 20.6297 43.1032H35.3427C35.6295 43.1032 35.8984 42.9419 36.0239 42.6805C36.4542 41.6571 34.6196 40.6003 33.8307 40.1776C33.0001 39.7771 32.1216 39.4935 31.1415 39.232C28.8766 38.5924 27.3468 36.4733 27.4245 34.1261C25.1536 34.9215 22.4883 34.9215 20.2174 34.1261C19.7871 40.7338 13.5123 37.797 11.3012 42.0019C11.0562 42.5025 11.4327 43.1087 11.9944 43.1032C13.2673 43.1532 13.2673 44.972 11.9944 45.0221C7.47059 44.3602 9.41279 39.5491 12.5562 38.2865L12.5621 27.8021ZM12.9327 20.3268C13.0283 20.8997 12.6817 21.4837 12.0781 21.5338C8.85105 21.9064 10.6259 26.7008 13.2374 25.7609C13.6856 25.6218 14.1816 25.8332 14.3848 26.2614C18.5979 34.966 29.0559 34.966 33.275 26.2726C33.4841 25.8276 34.0279 25.6163 34.4821 25.7942C36.6335 26.4951 38.6115 22.8353 36.245 21.7284C35.4024 21.4003 34.6494 21.556 34.7271 20.3212C33.4005 19.6594 30.0658 17.8406 27.2272 14.9205C25.2372 14.9094 23.558 13.6023 22.9783 11.8002C22.9544 11.8058 22.9305 11.8058 22.9126 11.8114C19.9067 16.5613 14.6777 19.4591 12.9327 20.3268ZM14.2534 13.8471C13.6079 15.093 13.1717 16.528 13.0044 18.1298C14.4147 17.3567 16.6438 15.9662 18.6696 13.9861C17.3609 14.7147 15.5143 14.6536 14.2534 13.8471ZM33.275 13.6079C32.4084 13.8415 31.3925 13.7914 30.5619 13.4688C30.2332 13.8304 29.8388 14.1419 29.4085 14.3755C31.3208 16.1442 33.3467 17.4067 34.6554 18.1298C34.4702 16.4223 33.9921 14.9038 33.275 13.6079ZM33.1734 37.8471V30.0047C32.0857 31.3562 30.7889 32.4686 29.3487 33.2751C29.1694 36.3954 30.4184 37.1185 33.1734 37.8471ZM14.4804 37.5579C17.0621 37.074 18.5023 36.1118 18.3111 33.2696C16.8649 32.4631 15.5681 31.3451 14.4804 29.9936V37.5579ZM17.9286 19.7817C16.8649 20.4825 15.8071 19.0086 16.8111 18.2244C16.8111 18.2244 19.3628 16.4056 21.7532 18.241C22.7273 19.0587 21.6277 20.4992 20.5819 19.765C19.2971 18.775 17.9286 19.7817 17.9286 19.7817ZM26.8866 19.7817C25.8229 20.4825 24.7651 19.0086 25.7691 18.2244C25.7691 18.2244 28.3209 16.4056 30.7113 18.241C31.6853 19.0587 30.5858 20.4992 29.54 19.765C28.2551 18.775 26.8866 19.7817 26.8866 19.7817ZM29.2949 21.2501C30.1495 20.3101 31.5419 21.4726 30.765 22.4849C30.765 22.4849 28.781 24.8932 26.1934 22.9076C25.7751 22.585 25.6974 21.9843 26.0141 21.5616C26.3368 21.1388 26.9404 21.061 27.3587 21.3836C28.4523 22.2234 29.2949 21.2501 29.2949 21.2501ZM25.1715 27.1903C26.2352 26.4895 27.293 27.9634 26.289 28.7477C26.289 28.7477 23.7373 30.5664 21.3469 28.731C20.3728 27.9134 21.4724 26.4728 22.5182 27.207C23.797 28.197 25.1715 27.1903 25.1715 27.1903ZM16.8947 22.4849C16.1179 21.4781 17.5103 20.3101 18.3648 21.2501C18.3648 21.2501 19.2075 22.2234 20.3011 21.3836C20.7194 21.061 21.323 21.1388 21.6457 21.5616C22.7273 23.4526 18.4664 24.6485 16.8947 22.4849ZM5.875 10.5933C7.35107 10.5933 8.55225 11.7947 8.55225 13.2742C8.40883 16.8283 3.34118 16.8283 3.19775 13.2742C3.19775 11.7947 4.39893 10.5933 5.875 10.5933ZM5.875 12.5122C5.45668 12.5122 5.11605 12.8515 5.11605 13.2742C5.15788 14.2809 6.59212 14.2809 6.63395 13.2742C6.63395 12.8515 6.29332 12.5122 5.875 12.5122ZM39.1075 1.64404C40.5836 1.64404 41.7848 2.84543 41.7848 4.32492C41.6414 7.87904 36.5737 7.87904 36.4303 4.32492C36.4303 2.84543 37.6315 1.64404 39.1075 1.64404ZM39.1075 3.56293C38.6892 3.56293 38.3486 3.90221 38.3486 4.32492C38.3904 5.33164 39.8247 5.33164 39.8665 4.32492C39.8725 3.90221 39.5318 3.56293 39.1075 3.56293Z" fill="#0E3311"/>
</g>
<defs>
<clipPath id="clip0_10182_28">
<rect width="45" height="45" fill="white"/>
</clipPath>
</defs>
</svg>
