<svg width="45" height="45" viewBox="0 0 45 45" fill="none" xmlns="http://www.w3.org/2000/svg">
<g clip-path="url(#clip0_10182_49)">
<path fill-rule="evenodd" clip-rule="evenodd" d="M19.7904 37.2745C16.4486 45.1575 7.80696 45.3625 5.16221 37.0182C3.77832 32.2412 7.47893 27.9153 7.51994 23.2511C7.29441 18.9354 4.56765 15.7986 5.78752 11.1037C6.18731 8.08986 4.18836 4.71727 5.39798 1.81624C6.6691 -1.21806 10.9028 -0.0596921 12.0714 2.4313C13.363 0.98591 15.5977 1.23194 16.5203 2.9336C18.1605 1.74449 20.3029 2.66708 20.795 4.52251C22.6709 3.42565 24.7519 4.72753 24.9364 6.80848C27.0993 6.4907 28.4832 8.5614 27.8887 10.5398C27.5299 11.7392 26.556 13.0001 25.5924 13.7587C25.654 14.466 25.6232 14.753 25.6437 15.3476C27.4274 15.3988 28.4832 16.8135 28.8523 18.4434C33.0757 20.3706 31.1485 26.2341 29.7134 29.2684L39.9951 43.4866C40.4564 44.0811 39.9746 45.0345 39.216 45.0037H35.1566C34.8388 45.0037 34.6646 44.7679 34.5723 44.4706C34.3776 43.9478 34.7876 43.343 35.3514 43.3328C36.233 43.2918 37.4631 43.2405 37.4631 43.2405C36.274 41.6004 27.2429 29.1249 26.3305 27.864C25.6642 26.9414 26.6175 25.6088 26.8328 24.5017C27.1198 22.8513 27.9092 17.2953 25.4592 17.2542C24.5673 20.6576 23.7063 24.0712 22.8349 27.4847C22.6402 28.2228 21.6561 29.1967 20.9487 28.2946C20.2004 27.3515 19.8211 26.1624 19.0626 25.2295C18.7755 24.8707 18.4065 24.5735 18.0375 24.3069C17.8222 24.1532 17.4122 23.8764 17.2584 24.1019C16.6433 24.9835 18.3655 27.5155 18.4885 28.028C18.9395 29.8835 18.7038 31.8824 19.3086 33.6968C19.7289 34.9987 20.7847 35.8188 22.0148 36.1468C22.3634 36.1878 22.6504 36.4134 22.7837 36.7414L25.3362 43.097H28.2782C29.5186 43.097 29.5186 45.014 28.2782 45.014H24.6904C24.2906 45.014 23.9523 44.7782 23.7985 44.4091C22.8862 42.2667 22.3326 39.95 21.1948 37.91C20.9282 37.459 20.2107 37.541 19.7904 37.2745ZM18.3245 35.9213C16.5613 33.5738 17.4429 30.6523 16.4691 28.0691C16.2333 27.4437 15.0852 25.4448 15.1262 24.5427C15.8232 20.1963 20.2004 22.6668 21.3998 25.332L23.5833 16.8442L23.7268 16.2907C24.7314 8.70491 17.976 7.00325 11.8766 7.92584C11.5896 7.96684 11.3026 7.87459 11.0873 7.66957C10.5645 7.17752 10.8618 5.80388 10.8105 5.38359C10.6362 4.10222 10.3595 2.10327 8.6578 1.94951C5.98229 1.71374 7.18165 5.30158 7.40717 6.78798C8.176 9.95553 7.20216 12.6003 7.6327 15.8089C8.1965 18.3101 9.47788 20.6986 9.44712 23.3126C9.54963 27.8435 5.93103 31.9439 7.01764 36.5159C9.48813 43.6198 15.7822 42.3897 18.3245 35.9213ZM12.7172 5.41435C12.7274 5.58861 12.7274 5.75262 12.7274 5.91664C13.486 5.87564 14.2958 5.88589 15.1364 5.91664C15.4645 2.9746 13.404 2.31854 12.7172 5.41435ZM19.0113 6.33694C19.0626 5.74238 19.0626 5.08631 18.7345 4.57376C18.181 3.96895 17.3609 4.56351 17.0636 5.13757C17.0739 5.4451 17.0739 5.75263 17.0431 6.06016C17.7094 6.12166 18.3655 6.20367 19.0113 6.33694ZM20.959 6.94174C21.6971 7.25952 22.3429 7.64906 22.9067 8.11036C23.0297 7.50555 23.1937 6.72647 22.7529 6.22417C22.0764 5.74237 21.3485 6.38819 20.959 6.94174ZM25.1619 11.5342C26.0742 10.5706 26.9763 8.18211 24.6904 8.87918C24.5981 9.18671 24.4853 9.49424 24.3623 9.78127C24.6904 10.3143 24.9569 10.8986 25.1619 11.5342ZM28.4115 27.4847C29.1598 25.7113 30.1644 23.0461 29.088 21.1599C29.0675 23.7124 28.4422 26.1316 28.1552 27.1362L28.4115 27.4847ZM16.3973 18.6279C17.2379 18.6484 17.6377 19.7042 17.0329 20.2783C16.7356 20.5551 16.182 20.5243 15.8232 20.6473C15.0237 20.9241 14.4599 21.6417 14.1831 22.431C13.3835 24.7375 14.1728 26.9107 14.4291 29.2069C14.5931 30.4165 12.9325 30.8983 12.5634 29.6477C11.5691 25.8651 11.0975 19.0687 16.3973 18.6279Z" fill="#0E3311"/>
</g>
<defs>
<clipPath id="clip0_10182_49">
<rect width="45" height="45" fill="white"/>
</clipPath>
</defs>
</svg>
