<svg width="45" height="45" viewBox="0 0 45 45" fill="none" xmlns="http://www.w3.org/2000/svg">
<g clip-path="url(#clip0_10182_94)">
<path fill-rule="evenodd" clip-rule="evenodd" d="M30.4093 12.2434L23.9381 10.2743C23.4329 10.1227 23.1517 9.58315 23.3033 9.07798L23.7404 7.64919C24.141 6.33948 25.5148 5.60248 26.8245 6.00308L31.8508 7.52583L32.2514 6.21611C31.5854 5.26045 31.3468 4.01268 31.7203 2.80586C32.3479 0.711176 34.5722 -0.472292 36.6576 0.171407C38.7523 0.798937 39.9357 3.0233 39.292 5.10865C38.9313 6.31206 38.0405 7.22022 36.9528 7.64827L36.5522 8.95798L37.8619 9.35859C38.8176 8.69264 40.0653 8.454 41.2721 8.82752C43.3668 9.45505 44.5503 11.6794 43.9066 13.7648C43.2663 15.8629 41.0547 17.0429 38.9694 16.3992C37.766 16.0385 36.8705 15.1443 36.4297 14.06L35.12 13.6594L33.5973 18.6856C33.1967 19.9953 31.8228 20.7323 30.5131 20.3317C29.74 20.047 28.099 19.9401 28.453 18.7112L30.4093 12.2434ZM31.2799 9.37306L26.2537 7.85032C25.9577 7.76564 25.6468 7.93094 25.5493 8.23031L25.3977 8.73547L30.9615 10.4285L31.2799 9.37306ZM33.83 7.56943L30.5567 18.3525L31.0619 18.5041C31.3578 18.5888 31.6688 18.4235 31.7662 18.1241L34.882 7.87512C34.5164 7.83644 34.1592 7.72718 33.83 7.56943ZM35.9068 5.98826C36.6183 5.83865 37.2179 5.32276 37.455 4.57604C37.7794 3.4917 37.171 2.34298 36.0867 2.01863C35.0024 1.69428 33.8536 2.30264 33.5293 3.38698C33.3142 4.11412 33.5157 4.86628 33.995 5.38007C34.4453 5.88795 35.2498 6.13695 35.9068 5.98826ZM36.5154 10.9627L35.9941 10.8018L35.6756 11.8572L36.197 12.0182C36.2484 11.6491 36.3577 11.2919 36.5154 10.9627ZM38.1102 13.0905C38.2692 13.7858 38.7817 14.3726 39.5088 14.5877C40.5931 14.9121 41.7419 14.3037 42.0662 13.2194C42.3906 12.1351 41.7822 10.9864 40.6979 10.662C39.2265 10.1681 37.7302 11.621 38.1102 13.0905ZM4.80059 29.0104C0.841204 28.8688 -0.797314 22.8039 3.34571 21.489C3.34138 21.4218 3.34638 21.3385 3.34205 21.2713C3.42405 13.5704 8.77052 8.99543 15.3304 9.00055C21.8903 9.00566 27.2397 13.5708 27.321 21.2689C27.3159 21.3522 27.3203 21.4194 27.3153 21.5027C31.407 22.8523 29.7723 28.8376 25.8566 29.0122L25.8615 39.0263C27.4701 39.8797 29.1537 41.5738 28.2157 43.4784C27.7704 44.4175 26.8359 45.0095 25.8081 44.9979C20.7275 45.0064 16.2165 44.9989 11.3791 44.9969C10.8477 45.0026 10.4306 44.5678 10.4249 44.0364C10.4226 43.5179 10.854 43.088 11.3726 43.0857C16.1973 43.0912 20.7049 43.0859 25.7889 43.0902C26.4104 43.115 26.7844 42.3179 26.3732 41.8542C25.2954 40.5853 23.7084 40.0677 22.0875 39.6275C20.0158 39.0348 18.5819 37.1508 18.5904 34.9897L18.5954 34.9064C16.5168 35.6136 14.0963 35.6062 12.0228 34.9047C11.9831 36.5413 11.1303 37.9995 9.80338 38.8605C11.612 40.5621 16.5455 41.3309 19.2395 39.7074C19.7094 39.4722 20.2826 39.6738 20.5178 40.1437C20.7403 40.617 20.5513 41.1868 20.0815 41.422C16.068 43.7816 9.64714 41.9494 7.76386 39.6119C7.10685 39.7606 6.54 39.9398 5.96131 40.1768C4.98309 40.4525 2.4708 42.6013 4.50242 43.0954C5.75134 43.1161 5.76032 44.9856 4.5089 45.0066C3.55161 45.0034 2.67876 44.4995 2.19745 43.672C1.00397 41.6143 2.98833 39.484 4.78289 38.6343L4.80059 29.0104ZM5.25711 21.6874C5.35139 22.3453 5.20437 23.1225 4.41806 23.1966C4.20383 23.213 3.99052 23.2838 3.78404 23.3801C1.66053 24.2769 3.49242 27.7486 5.39171 27.0348C5.84632 26.8447 6.41024 27.0625 6.6131 27.5137C10.3359 35.4933 20.3245 35.4952 24.0517 27.5282C24.2459 27.08 24.8025 26.8625 25.2601 27.0405C27.138 27.7261 28.9721 24.2698 26.8473 23.377C26.644 23.2812 26.451 23.2236 26.2392 23.1983C25.4502 23.1091 25.3286 22.3492 25.4103 21.6852C23.9464 20.3011 22.324 19.3967 20.6268 18.4168C18.91 17.4147 17.1183 16.3371 15.3268 14.6992C13.624 16.2485 11.8586 17.309 10.1212 18.321C8.42549 19.3355 6.75091 20.2761 5.25711 21.6874ZM23.9715 38.1937L23.9752 31.1696C22.9963 32.361 21.8251 33.3443 20.5439 34.0701L20.5467 34.9985C20.5524 36.295 21.4039 37.4332 22.649 37.7965C23.0929 37.9235 23.5369 38.0505 23.9715 38.1937ZM7.90354 37.6343C9.21413 37.3241 10.1454 36.1591 10.1387 34.8082C10.1342 34.5362 10.133 34.2769 10.1455 34.0686C8.85923 33.3474 7.69335 32.3618 6.70322 31.165L6.70176 37.9426C7.09355 37.8239 7.49217 37.7308 7.90354 37.6343ZM5.4844 19.0168C6.65746 18.1423 7.90041 17.4267 9.17479 16.6753C11.0074 15.6105 12.8934 14.4903 14.669 12.7029C15.0469 12.3284 15.6488 12.3311 16.0199 12.6963C17.9052 14.5823 19.7905 15.7032 21.6009 16.7485C22.8489 17.4798 24.0578 18.1671 25.1989 19.0091C24.2356 13.8837 20.193 10.8814 15.3428 10.8828C10.4867 10.9131 6.44847 13.8942 5.4844 19.0168ZM9.88192 21.6097C9.45804 21.9146 8.85771 21.8158 8.55286 21.3919C7.51081 20.1545 10.8973 18.2087 13.4483 20.0804C14.4218 20.858 13.2877 22.3369 12.2828 21.595C11.1281 20.702 9.88192 21.6097 9.88192 21.6097ZM13.4166 22.7669C14.4249 23.5216 13.3265 25.0319 12.2995 24.3096C12.2995 24.3096 11.0581 23.3988 9.9046 24.2954C9.48413 24.613 8.89063 24.5397 8.57303 24.1193C8.25543 23.6988 8.32871 23.1053 8.74917 22.7877C11.012 21.0337 13.4166 22.7669 13.4166 22.7669ZM12.0517 26.1386L18.5827 26.1378C21.0835 26.5472 18.4411 31.6275 15.3113 31.3182C12.1856 31.6364 9.5646 26.5453 12.0517 26.1386ZM13.2169 28.0399C13.9544 29.8235 16.7013 29.8254 17.4397 28.0426C16.377 28.0541 14.2576 28.048 13.2169 28.0399ZM18.2158 24.3095C17.7919 24.6144 17.1916 24.5156 16.8868 24.0917C15.832 22.8577 19.2312 20.9085 21.7822 22.7802C22.765 23.5416 21.6122 25.0528 20.6167 24.2948C19.462 23.4018 18.2158 24.3095 18.2158 24.3095ZM18.2152 21.6043C17.7914 21.9091 17.191 21.8104 16.8862 21.3865C15.8314 20.1524 19.2306 18.2033 21.7816 20.0749C22.7585 20.8653 21.621 22.3315 20.6161 21.5896C19.4486 20.7 18.2152 21.6043 18.2152 21.6043Z" fill="#0E3311"/>
</g>
<defs>
<clipPath id="clip0_10182_94">
<rect width="45" height="45" fill="white"/>
</clipPath>
</defs>
</svg>
