<svg width="45" height="45" viewBox="0 0 45 45" fill="none" xmlns="http://www.w3.org/2000/svg">
<g clip-path="url(#clip0_10182_60)">
<path fill-rule="evenodd" clip-rule="evenodd" d="M6.64592 22.2135C4.75677 19.9371 3.65063 17.9092 3.66927 16.2857C3.70034 13.5068 3.64441 10.2367 3.6382 9.63005L1.68691 1.21221C1.53776 0.634462 2.02248 0.0278228 2.61905 0.0393779C12.68 0.189593 9.77171 -1.59566 10.2129 8.13367C10.766 8.47455 11.723 9.09274 12.6365 9.76871C12.8416 9.53761 13.0529 9.31806 13.2704 9.11007C13.5687 6.00755 15.0849 3.67921 17.2413 2.30994C18.304 1.63397 19.3293 3.2459 18.2667 3.92187C17.0549 4.69028 16.1227 5.85156 15.5945 7.34215C19.8575 4.83471 25.0713 5.13515 28.6446 6.8684C27.5198 4.28585 25.0651 2.82414 22.2127 2.82414C20.9575 2.82414 20.9512 0.911783 22.2127 0.911783C26.6249 0.911783 30.3038 3.67921 31.0681 8.41099C31.5653 8.81542 32.0313 9.26607 32.4663 9.75138C33.3674 9.08119 34.312 8.47455 34.8589 8.13367C35.2939 -1.59566 32.3918 0.189593 42.4527 0.0393779C43.0555 0.0393779 43.5216 0.599797 43.3849 1.21221L41.4336 9.63005C41.1477 13.7841 42.5957 17.863 38.4259 22.2193C39.1343 24.8307 36.2819 28.0199 33.7589 27.5866C32.3731 30.1056 30.4716 32.0988 28.0231 33.4045C27.5135 39.234 32.8454 36.7439 35.7226 40.6726C37.9846 43.7232 33.0443 46.5715 32.659 44.0351C32.7895 42.6832 33.9081 43.4458 34.2996 42.6485C34.4301 42.3886 34.3928 42.0766 34.2126 41.8455C31.7144 38.7892 26.134 40.2162 26.1091 34.56C23.9528 35.3053 21.4235 35.3053 19.261 34.56C18.9813 40.5975 12.8602 38.2461 10.7536 41.961C10.4801 42.4463 10.8716 43.0992 11.4309 43.0819H24.9035C25.4318 43.0819 25.8605 43.5094 25.8605 44.0351C25.8605 44.5609 25.4318 44.9884 24.9035 44.9884C19.8637 44.9884 14.3952 44.9884 11.4309 44.9884C9.47964 45.0462 8.10007 42.7641 9.06328 41.0655C11.3377 36.3395 17.8192 39.2918 17.3532 33.5259C14.8861 32.2952 12.7981 30.2096 11.3688 27.575C8.81471 28.043 5.93127 24.8422 6.64592 22.2135ZM12.1642 11.8371C10.7349 10.6527 8.765 9.49717 8.765 9.49717C8.47292 9.32384 8.29271 9.01186 8.29271 8.67676V1.95174H3.8122C3.8122 1.95174 5.53977 9.42784 5.53977 9.49139C5.53977 9.49139 5.61435 13.2006 5.57706 16.3089C5.56463 17.3546 6.47813 18.9261 7.64021 20.4109C7.98821 20.0642 9.29321 19.3189 9.29321 19.2785C9.29321 16.9964 9.71579 14.9627 10.4677 13.2006C10.6479 12.7788 11.1016 12.5477 11.549 12.6401C14.2709 13.2294 12.6489 12.2357 12.1642 11.8371ZM14.0907 10.9993C16.6074 13.2757 14.594 15.188 11.9529 14.6507C11.6236 15.5867 11.3936 16.6035 11.2818 17.7012C13.8607 16.3031 19.2485 12.8539 21.2309 7.49237C17.4029 7.87946 15.1471 9.82071 14.0907 10.9993ZM23.8658 7.49237C25.8481 12.8539 31.2359 16.3031 33.8149 17.7012C33.703 16.6035 33.4731 15.5867 33.1437 14.6449C30.1484 15.1996 28.601 13.1312 30.9873 10.982C29.962 9.84382 27.731 7.87946 23.8658 7.49237ZM37.4129 20.4109C38.7304 18.7239 39.4885 17.2275 39.4761 16.3089C39.4388 13.2063 39.5134 9.49139 39.5134 9.49139C39.5134 9.42206 41.2409 1.95174 41.2409 1.95174H36.7542C36.4808 12.409 38.3637 6.8164 31.8946 12.8077C32.8578 12.9463 34.1629 12.1144 34.6227 13.1948C35.9401 16.2684 35.8034 19.3709 35.7972 19.4172C35.965 19.4692 37.0276 20.0238 37.4129 20.4109ZM8.7215 24.1027C9.287 25.2929 10.4864 25.9862 11.5179 25.5875C11.984 25.4084 12.506 25.6164 12.7235 26.0613C12.8229 26.2693 14.4635 29.9785 18.248 31.8446C23.6607 34.7334 30.2168 31.1282 32.3731 26.0729C32.5906 25.628 33.1064 25.4258 33.5663 25.5933C35.8345 26.408 37.9474 22.3464 35.4368 21.318C34.7097 20.9713 33.8397 21.2717 33.8894 19.8736C31.9071 18.8799 25.382 15.2573 22.5545 9.26607C19.7208 15.2573 13.1958 18.8799 11.2134 19.8736C11.3066 21.1273 10.5609 20.9886 9.62257 21.318C8.417 21.8899 8.23057 23.057 8.7215 24.1027ZM25.6928 19.3016C25.264 19.6078 24.6674 19.5096 24.3567 19.0821C23.2692 17.8283 26.9294 15.7542 29.6513 17.7648C30.0676 18.0883 30.1484 18.6834 29.8253 19.1052C28.6818 20.3704 27.9113 17.7995 25.6928 19.3016ZM16.4086 19.3016C15.3894 20.0354 14.2709 18.487 15.29 17.7532C15.29 17.7532 17.9124 15.8871 20.3671 17.7706C21.3676 18.539 20.1993 20.0527 19.205 19.2843C17.8503 18.2443 16.4086 19.3016 16.4086 19.3016ZM15.3894 22.1037C14.5816 21.1331 16.0482 19.914 16.856 20.8789C16.856 20.8789 17.7509 21.913 18.913 21.0233C19.9072 20.2549 21.0755 21.7686 20.075 22.537C17.4277 24.5707 15.3894 22.1037 15.3894 22.1037ZM23.959 27.0377C24.9843 26.304 26.0967 27.8523 25.0775 28.5861C25.0775 28.5861 22.4551 30.4522 20.0005 28.5687C19 27.8003 20.1682 26.2866 21.1625 27.055C22.511 28.095 23.959 27.0377 23.959 27.0377ZM28.2406 20.8789C29.0485 19.914 30.5151 21.1389 29.7072 22.1037C29.7072 22.1037 27.6689 24.5707 25.0216 22.537C24.0273 21.7744 25.1832 20.2549 26.1837 21.0233C27.3458 21.913 28.2406 20.8789 28.2406 20.8789Z" fill="#0E3311"/>
</g>
<defs>
<clipPath id="clip0_10182_60">
<rect width="45" height="45" fill="white"/>
</clipPath>
</defs>
</svg>
