<svg width="50" height="50" viewBox="0 0 50 50" fill="none" xmlns="http://www.w3.org/2000/svg">
<g clip-path="url(#clip0_10182_2031)">
<path d="M45.8016 40.3824L41.0918 34.4321C40.757 34.0092 40.1427 33.9377 39.7199 34.2726C39.297 34.6073 39.2255 35.2215 39.5603 35.6443L44.2702 41.5946C44.5802 41.9861 44.6669 42.5774 44.2327 42.9501L38.6101 47.7779C38.3807 47.975 38.0474 48.0754 37.7412 48.0402C37.5876 48.0225 37.3761 47.963 37.2417 47.7797L15.7261 18.4397C15.3555 17.9343 14.8451 16.5436 15.5661 14.8978L18.2613 8.74741C18.475 9.04956 18.7028 9.32251 18.9144 9.57642C19.0323 9.71773 19.1435 9.85123 19.2498 9.98551L34.1054 28.7529C34.4401 29.1758 35.0544 29.2472 35.4772 28.9125C35.9001 28.5777 35.9716 27.9635 35.6368 27.5407L32.7222 23.8585L35.849 19.5946C36.7136 18.4154 37.1647 16.2635 36.2227 14.1139L32.5626 5.76097C32.557 5.74759 32.5513 5.73441 32.5452 5.72132C30.8794 1.92511 28.3409 0 25 0C21.6587 0 19.1201 1.9253 17.4548 5.72132C17.4486 5.73451 17.4429 5.74779 17.4373 5.76117L13.7772 14.1139C12.8353 16.2635 13.2864 18.4154 14.1511 19.5946L17.2778 23.8584L4.19828 40.3823C3.17864 41.6703 3.30599 43.4113 4.49467 44.432L10.1174 49.2599C10.7553 49.8078 11.6391 50.0774 12.4811 49.9807C13.2452 49.893 13.903 49.5216 14.3333 48.9348L25.0001 34.389L35.6667 48.9348C36.0969 49.5216 36.7547 49.8931 37.5186 49.9808C37.6316 49.9937 37.7453 50.0001 37.859 50.0001C38.5933 50.0001 39.33 49.7344 39.8827 49.2599L45.5052 44.432C46.6938 43.4114 46.8214 41.6704 45.8016 40.3824ZM23.1062 11.7105C23.6973 11.4367 24.3468 11.2902 25 11.2902C25.6531 11.2902 26.3026 11.4367 26.8937 11.7105L25 14.103L23.1062 11.7105ZM31.0855 9.57642C31.2973 9.32251 31.5248 9.04956 31.7387 8.74751L34.4338 14.8979C35.155 16.5437 34.6446 17.9344 34.2738 18.4398L31.4649 22.2702L26.2456 15.6765L30.7502 9.98551C30.8564 9.85123 30.9678 9.71773 31.0855 9.57642ZM25 1.95314C27.5135 1.95314 29.3209 3.34279 30.6749 6.32338C30.6157 7.05375 30.2124 7.57348 29.5853 8.32563C29.4649 8.47007 29.3403 8.61948 29.2186 8.7732L28.129 10.1498C27.1759 9.62242 26.0915 9.33697 24.9999 9.33697C23.9084 9.33697 22.8239 9.62242 21.8707 10.1498L20.7811 8.7732C20.6594 8.61948 20.5349 8.47017 20.4145 8.32573C19.7874 7.57358 19.3841 7.05375 19.3248 6.32338C20.6786 3.34309 22.4862 1.95314 25 1.95314ZM12.7582 47.7798C12.6238 47.9631 12.4123 48.0226 12.2585 48.0402C11.9517 48.0757 11.6191 47.9749 11.3897 47.7779L5.76704 42.9501C5.33305 42.5774 5.41967 41.986 5.72964 41.5945L18.4758 25.4919L23.789 32.7374L12.7582 47.7798Z" fill="#169091"/>
<path d="M37.5989 32.5693C38.1382 32.5693 38.5755 32.1321 38.5755 31.5928C38.5755 31.0534 38.1382 30.6162 37.5989 30.6162H37.5982C37.059 30.6162 36.6221 31.0534 36.6221 31.5928C36.6221 32.1321 37.0597 32.5693 37.5989 32.5693Z" fill="#169091"/>
</g>
<defs>
<clipPath id="clip0_10182_2031">
<rect width="50" height="50" fill="white"/>
</clipPath>
</defs>
</svg>
