<svg width="38" height="38" viewBox="0 0 38 38" fill="none" xmlns="http://www.w3.org/2000/svg">
<path d="M34.8854 21.5052C35.083 30.3356 27.2861 38.1248 18.4633 37.9424C9.86847 37.988 2.47443 30.974 2.04123 22.3868C1.35723 13.2295 9.28327 4.87029 18.4557 5.06789C18.6685 5.06789 18.8357 5.24269 18.8357 5.44789V21.1252H34.513C34.7182 21.1252 34.8854 21.2924 34.8854 21.5052Z" fill="#169091"/>
<path d="M36.962 19.4373C36.962 19.6425 36.7948 19.8097 36.582 19.8097H20.5247C20.3195 19.8097 20.1523 19.6425 20.1523 19.4373V3.38C20.1523 3.1672 20.3195 3 20.5247 3C29.5908 3 36.962 10.3712 36.962 19.4373Z" fill="#169091"/>
</svg>
