<svg width="15" height="11" viewBox="0 0 15 11" fill="none" xmlns="http://www.w3.org/2000/svg">
<path d="M14.148 1.46048L5.14804 10.4605C5.0958 10.5128 5.03376 10.5543 4.96547 10.5826C4.89719 10.6109 4.82399 10.6255 4.75007 10.6255C4.67615 10.6255 4.60295 10.6109 4.53467 10.5826C4.46638 10.5543 4.40434 10.5128 4.3521 10.4605L0.4146 6.52298C0.309052 6.41743 0.249756 6.27427 0.249756 6.12501C0.249756 5.97574 0.309052 5.83259 0.4146 5.72704C0.520148 5.62149 0.663301 5.56219 0.812569 5.56219C0.961836 5.56219 1.10499 5.62149 1.21054 5.72704L4.75007 9.26727L13.3521 0.664539C13.4576 0.558991 13.6008 0.499695 13.7501 0.499695C13.8993 0.499695 14.0425 0.558991 14.148 0.664539C14.2536 0.770086 14.3129 0.91324 14.3129 1.06251C14.3129 1.21177 14.2536 1.35493 14.148 1.46048Z" fill="#185EC8"/>
</svg>
