<svg width="144" height="45" viewBox="0 0 144 45" fill="none" xmlns="http://www.w3.org/2000/svg">
<path d="M15.4745 26.0282C16.958 24.3203 19.8539 23.3185 22.6566 22.3495C23.0672 22.2072 23.5106 22.0485 23.9595 21.8897C21.9724 16.2239 16.0493 7.83198 15.7482 7.41045C15.6947 7.34263 15.6265 7.28782 15.5487 7.25013C15.471 7.21245 15.3857 7.19287 15.2993 7.19287C15.2129 7.19287 15.1276 7.21245 15.0499 7.25013C14.9721 7.28782 14.9039 7.34263 14.8504 7.41045C14.4891 7.91955 5.99316 19.9573 5.99316 24.9115C5.99574 27.3789 6.97703 29.7444 8.72172 31.4891C10.4664 33.2338 12.832 34.2151 15.2993 34.2177H15.3595C14.5055 32.4385 13.1753 28.6723 15.4745 26.0282ZM13.6242 31.2889C13.5871 31.3959 13.5176 31.4886 13.4254 31.5543C13.3332 31.62 13.2228 31.6555 13.1096 31.6557C13.0479 31.6554 12.9868 31.6443 12.929 31.6228C11.542 31.1307 10.3412 30.2215 9.49148 29.0199C8.64173 27.8183 8.18461 26.3832 8.18285 24.9115C8.18285 24.7663 8.24052 24.6271 8.34318 24.5244C8.44584 24.4218 8.58508 24.3641 8.73027 24.3641C8.87545 24.3641 9.01469 24.4218 9.11735 24.5244C9.22002 24.6271 9.27769 24.7663 9.27769 24.9115C9.27957 26.156 9.66614 27.3695 10.3845 28.3857C11.1028 29.4019 12.1177 30.1712 13.2903 30.5882C13.4275 30.6369 13.5397 30.7381 13.6023 30.8694C13.6649 31.0008 13.6728 31.1517 13.6242 31.2889Z" fill="#02110B"/>
<path d="M28.8104 21.4571C28.7976 21.3534 28.7553 21.2555 28.6887 21.1749C28.6222 21.0944 28.534 21.0345 28.4345 21.0023C28.3351 20.9701 28.2285 20.9669 28.1274 20.9932C28.0262 21.0195 27.9346 21.074 27.8634 21.1505C27.1572 21.9388 25.0497 22.6724 23.0133 23.384C20.3419 24.3092 17.5829 25.2726 16.3019 26.7452C14.0958 29.2852 16.1431 33.4128 16.6468 34.3324C16.8438 33.9492 17.0683 33.5715 17.3037 33.2048C19.9258 29.1484 24.3927 26.2032 24.6336 26.0445C24.7549 25.9666 24.9019 25.9398 25.0428 25.97C25.1837 26.0001 25.307 26.0848 25.3857 26.2054C25.4645 26.3261 25.4923 26.473 25.4632 26.6141C25.4341 26.7552 25.3504 26.879 25.2303 26.9587C24.6257 27.2098 17.3084 32.7952 16.8276 37.1736C16.8026 37.3146 16.8338 37.4597 16.9145 37.5778C16.9953 37.696 17.1191 37.7778 17.2595 37.8057C17.3999 37.8337 17.5456 37.8055 17.6654 37.7272C17.7852 37.6489 17.8696 37.5268 17.9004 37.387C18.0811 36.5342 18.3795 35.7106 18.7872 34.9401C18.9295 34.9455 19.0773 34.951 19.2361 34.951C26.3094 35.0024 29.9157 29.6743 28.8104 21.4571Z" fill="#02110B"/>
<path d="M48.9111 11.1772H52.6318L58.1104 26.8364L63.5889 11.1772H67.3096L59.6045 32.5054H56.6162L48.9111 11.1772ZM46.9043 11.1772H50.6104L51.2842 26.4409V32.5054H46.9043V11.1772ZM65.6104 11.1772H69.3311V32.5054H64.9365V26.4409L65.6104 11.1772ZM80.2148 32.7983C78.9844 32.7983 77.8809 32.603 76.9043 32.2124C75.9277 31.812 75.0977 31.2603 74.4141 30.5571C73.7402 29.854 73.2227 29.0386 72.8613 28.1108C72.5 27.1733 72.3193 26.1772 72.3193 25.1226V24.5366C72.3193 23.3354 72.4902 22.2368 72.832 21.2407C73.1738 20.2446 73.6621 19.3804 74.2969 18.6479C74.9414 17.9155 75.7227 17.354 76.6406 16.9634C77.5586 16.563 78.5938 16.3628 79.7461 16.3628C80.8691 16.3628 81.8652 16.5483 82.7344 16.9194C83.6035 17.2905 84.3311 17.8179 84.917 18.5015C85.5127 19.1851 85.9619 20.0054 86.2646 20.9624C86.5674 21.9097 86.7188 22.9644 86.7188 24.1265V25.8843H74.1211V23.0718H82.5732V22.7495C82.5732 22.1636 82.4658 21.6411 82.251 21.1821C82.0459 20.7134 81.7334 20.3423 81.3135 20.0688C80.8936 19.7954 80.3564 19.6587 79.7021 19.6587C79.1455 19.6587 78.667 19.7808 78.2666 20.0249C77.8662 20.269 77.5391 20.6108 77.2852 21.0503C77.041 21.4897 76.8555 22.0073 76.7285 22.603C76.6113 23.189 76.5527 23.8335 76.5527 24.5366V25.1226C76.5527 25.7573 76.6406 26.3433 76.8164 26.8804C77.002 27.4175 77.2607 27.8813 77.5928 28.272C77.9346 28.6626 78.3447 28.9653 78.8232 29.1802C79.3115 29.395 79.8633 29.5024 80.4785 29.5024C81.2402 29.5024 81.9482 29.356 82.6025 29.063C83.2666 28.7603 83.8379 28.3062 84.3164 27.7007L86.3672 29.9272C86.0352 30.4058 85.5811 30.8647 85.0049 31.3042C84.4385 31.7437 83.7549 32.105 82.9541 32.3882C82.1533 32.6616 81.2402 32.7983 80.2148 32.7983ZM98.4814 29.0483V10.0054H102.729V32.5054H98.9062L98.4814 29.0483ZM88.4619 24.771V24.4634C88.4619 23.2524 88.5986 22.1538 88.8721 21.1675C89.1455 20.1714 89.5459 19.3169 90.0732 18.604C90.6006 17.8911 91.25 17.3394 92.0215 16.9487C92.793 16.5581 93.6719 16.3628 94.6582 16.3628C95.5859 16.3628 96.3965 16.5581 97.0898 16.9487C97.793 17.3394 98.3887 17.896 98.877 18.6187C99.375 19.3315 99.7754 20.1763 100.078 21.1528C100.381 22.1196 100.601 23.1792 100.737 24.3315V25.0054C100.601 26.1089 100.381 27.1343 100.078 28.0815C99.7754 29.0288 99.375 29.8589 98.877 30.5718C98.3887 31.2749 97.793 31.8218 97.0898 32.2124C96.3867 32.603 95.5664 32.7983 94.6289 32.7983C93.6426 32.7983 92.7637 32.5981 91.9922 32.1978C91.2305 31.7974 90.5859 31.2358 90.0586 30.5132C89.541 29.7905 89.1455 28.9409 88.8721 27.9644C88.5986 26.9878 88.4619 25.9233 88.4619 24.771ZM92.6807 24.4634V24.771C92.6807 25.4253 92.7295 26.0356 92.8271 26.6021C92.9346 27.1685 93.1055 27.6714 93.3398 28.1108C93.584 28.5405 93.8965 28.8774 94.2773 29.1216C94.668 29.356 95.1416 29.4731 95.6982 29.4731C96.4209 29.4731 97.0166 29.312 97.4854 28.9897C97.9541 28.6577 98.3105 28.2036 98.5547 27.6274C98.8086 27.0513 98.9551 26.3872 98.9941 25.6353V23.7163C98.9648 23.1011 98.877 22.5493 98.7305 22.061C98.5938 21.563 98.3887 21.1382 98.1152 20.7866C97.8516 20.4351 97.5195 20.1616 97.1191 19.9663C96.7285 19.771 96.2646 19.6733 95.7275 19.6733C95.1807 19.6733 94.7119 19.8003 94.3213 20.0542C93.9307 20.2983 93.6133 20.6353 93.3691 21.0649C93.1348 21.4946 92.959 22.0024 92.8418 22.5884C92.7344 23.1646 92.6807 23.7896 92.6807 24.4634ZM110.479 16.6558V32.5054H106.245V16.6558H110.479ZM105.981 12.5249C105.981 11.9097 106.196 11.4019 106.626 11.0015C107.056 10.6011 107.632 10.4009 108.354 10.4009C109.067 10.4009 109.639 10.6011 110.068 11.0015C110.508 11.4019 110.728 11.9097 110.728 12.5249C110.728 13.1401 110.508 13.6479 110.068 14.0483C109.639 14.4487 109.067 14.6489 108.354 14.6489C107.632 14.6489 107.056 14.4487 106.626 14.0483C106.196 13.6479 105.981 13.1401 105.981 12.5249ZM118.418 10.0054V32.5054H114.185V10.0054H118.418ZM126.357 16.6558V32.5054H122.124V16.6558H126.357ZM121.86 12.5249C121.86 11.9097 122.075 11.4019 122.505 11.0015C122.935 10.6011 123.511 10.4009 124.233 10.4009C124.946 10.4009 125.518 10.6011 125.947 11.0015C126.387 11.4019 126.606 11.9097 126.606 12.5249C126.606 13.1401 126.387 13.6479 125.947 14.0483C125.518 14.4487 124.946 14.6489 124.233 14.6489C123.511 14.6489 122.935 14.4487 122.505 14.0483C122.075 13.6479 121.86 13.1401 121.86 12.5249ZM133.242 16.6558L135.864 21.4751L138.56 16.6558H143.057L138.574 24.4048L143.262 32.5054H138.75L135.894 27.4077L133.037 32.5054H128.525L133.213 24.4048L128.73 16.6558H133.242Z" fill="#02110B"/>
</svg>
