<svg width="145" height="44" viewBox="0 0 145 44" fill="none" xmlns="http://www.w3.org/2000/svg">
<g clip-path="url(#clip0_10061_7930)">
<path d="M19.5074 4.5C17.0096 4.5 14.5363 4.99201 12.2286 5.94793C9.92101 6.90385 7.82427 8.30495 6.05816 10.0712C4.29205 11.8375 2.89115 13.9344 1.93547 16.2421C0.979781 18.5499 0.488028 21.0232 0.488281 23.521V39.5019H16.4672C21.5119 39.5019 26.35 37.4979 29.9172 33.9308C33.4843 30.3637 35.4883 25.5256 35.4883 20.4809V4.5H19.5074ZM26.0192 24.6172H20.6036V30.0348H15.371V24.6172H9.95544V19.3847H15.371V13.9691H20.6036V19.3847H26.0096L26.0192 24.6172Z" fill="#185EC8"/>
<path opacity="0.3" d="M0.488281 23.521V39.5019L15.371 24.6172H9.95544V19.3847H15.371V13.9691H20.6036V19.375L35.4786 4.5H19.4881C14.4469 4.50511 9.61401 6.51141 6.05135 10.078C2.48869 13.6447 0.487768 18.4798 0.488281 23.521Z" fill="white"/>
</g>
<path d="M49.3994 10.6719H53.1201L58.5986 26.3311L64.0771 10.6719H67.7979L60.0928 32H57.1045L49.3994 10.6719ZM47.3926 10.6719H51.0986L51.7725 25.9355V32H47.3926V10.6719ZM66.0986 10.6719H69.8193V32H65.4248V25.9355L66.0986 10.6719ZM80.7031 32.293C79.4727 32.293 78.3691 32.0977 77.3926 31.707C76.416 31.3066 75.5859 30.7549 74.9023 30.0518C74.2285 29.3486 73.7109 28.5332 73.3496 27.6055C72.9883 26.668 72.8076 25.6719 72.8076 24.6172V24.0312C72.8076 22.8301 72.9785 21.7314 73.3203 20.7354C73.6621 19.7393 74.1504 18.875 74.7852 18.1426C75.4297 17.4102 76.2109 16.8486 77.1289 16.458C78.0469 16.0576 79.082 15.8574 80.2344 15.8574C81.3574 15.8574 82.3535 16.043 83.2227 16.4141C84.0918 16.7852 84.8193 17.3125 85.4053 17.9961C86.001 18.6797 86.4502 19.5 86.7529 20.457C87.0557 21.4043 87.207 22.459 87.207 23.6211V25.3789H74.6094V22.5664H83.0615V22.2441C83.0615 21.6582 82.9541 21.1357 82.7393 20.6768C82.5342 20.208 82.2217 19.8369 81.8018 19.5635C81.3818 19.29 80.8447 19.1533 80.1904 19.1533C79.6338 19.1533 79.1553 19.2754 78.7549 19.5195C78.3545 19.7637 78.0273 20.1055 77.7734 20.5449C77.5293 20.9844 77.3438 21.502 77.2168 22.0977C77.0996 22.6836 77.041 23.3281 77.041 24.0312V24.6172C77.041 25.252 77.1289 25.8379 77.3047 26.375C77.4902 26.9121 77.749 27.376 78.0811 27.7666C78.4229 28.1572 78.833 28.46 79.3115 28.6748C79.7998 28.8896 80.3516 28.9971 80.9668 28.9971C81.7285 28.9971 82.4365 28.8506 83.0908 28.5576C83.7549 28.2549 84.3262 27.8008 84.8047 27.1953L86.8555 29.4219C86.5234 29.9004 86.0693 30.3594 85.4932 30.7988C84.9268 31.2383 84.2432 31.5996 83.4424 31.8828C82.6416 32.1562 81.7285 32.293 80.7031 32.293ZM98.9697 28.543V9.5H103.218V32H99.3945L98.9697 28.543ZM88.9502 24.2656V23.958C88.9502 22.7471 89.0869 21.6484 89.3604 20.6621C89.6338 19.666 90.0342 18.8115 90.5615 18.0986C91.0889 17.3857 91.7383 16.834 92.5098 16.4434C93.2812 16.0527 94.1602 15.8574 95.1465 15.8574C96.0742 15.8574 96.8848 16.0527 97.5781 16.4434C98.2812 16.834 98.877 17.3906 99.3652 18.1133C99.8633 18.8262 100.264 19.6709 100.566 20.6475C100.869 21.6143 101.089 22.6738 101.226 23.8262V24.5C101.089 25.6035 100.869 26.6289 100.566 27.5762C100.264 28.5234 99.8633 29.3535 99.3652 30.0664C98.877 30.7695 98.2812 31.3164 97.5781 31.707C96.875 32.0977 96.0547 32.293 95.1172 32.293C94.1309 32.293 93.252 32.0928 92.4805 31.6924C91.7188 31.292 91.0742 30.7305 90.5469 30.0078C90.0293 29.2852 89.6338 28.4355 89.3604 27.459C89.0869 26.4824 88.9502 25.418 88.9502 24.2656ZM93.1689 23.958V24.2656C93.1689 24.9199 93.2178 25.5303 93.3154 26.0967C93.4229 26.6631 93.5938 27.166 93.8281 27.6055C94.0723 28.0352 94.3848 28.3721 94.7656 28.6162C95.1562 28.8506 95.6299 28.9678 96.1865 28.9678C96.9092 28.9678 97.5049 28.8066 97.9736 28.4844C98.4424 28.1523 98.7988 27.6982 99.043 27.1221C99.2969 26.5459 99.4434 25.8818 99.4824 25.1299V23.2109C99.4531 22.5957 99.3652 22.0439 99.2188 21.5557C99.082 21.0576 98.877 20.6328 98.6035 20.2812C98.3398 19.9297 98.0078 19.6562 97.6074 19.4609C97.2168 19.2656 96.7529 19.168 96.2158 19.168C95.6689 19.168 95.2002 19.2949 94.8096 19.5488C94.4189 19.793 94.1016 20.1299 93.8574 20.5596C93.623 20.9893 93.4473 21.4971 93.3301 22.083C93.2227 22.6592 93.1689 23.2842 93.1689 23.958ZM110.967 16.1504V32H106.733V16.1504H110.967ZM106.47 12.0195C106.47 11.4043 106.685 10.8965 107.114 10.4961C107.544 10.0957 108.12 9.89551 108.843 9.89551C109.556 9.89551 110.127 10.0957 110.557 10.4961C110.996 10.8965 111.216 11.4043 111.216 12.0195C111.216 12.6348 110.996 13.1426 110.557 13.543C110.127 13.9434 109.556 14.1436 108.843 14.1436C108.12 14.1436 107.544 13.9434 107.114 13.543C106.685 13.1426 106.47 12.6348 106.47 12.0195ZM118.906 9.5V32H114.673V9.5H118.906ZM126.846 16.1504V32H122.612V16.1504H126.846ZM122.349 12.0195C122.349 11.4043 122.563 10.8965 122.993 10.4961C123.423 10.0957 123.999 9.89551 124.722 9.89551C125.435 9.89551 126.006 10.0957 126.436 10.4961C126.875 10.8965 127.095 11.4043 127.095 12.0195C127.095 12.6348 126.875 13.1426 126.436 13.543C126.006 13.9434 125.435 14.1436 124.722 14.1436C123.999 14.1436 123.423 13.9434 122.993 13.543C122.563 13.1426 122.349 12.6348 122.349 12.0195ZM133.73 16.1504L136.353 20.9697L139.048 16.1504H143.545L139.062 23.8994L143.75 32H139.238L136.382 26.9023L133.525 32H129.014L133.701 23.8994L129.219 16.1504H133.73Z" fill="#071C3C"/>
<defs>
<clipPath id="clip0_10061_7930">
<rect width="35" height="35" fill="white" transform="translate(0.488281 4.5)"/>
</clipPath>
</defs>
</svg>
