<svg width="144" height="45" viewBox="0 0 144 45" fill="none" xmlns="http://www.w3.org/2000/svg">
<path d="M15.475 26.1615C16.9585 24.4536 19.8544 23.4518 22.6571 22.4828C23.0677 22.3405 23.5111 22.1818 23.96 22.023C21.9729 16.3572 16.0498 7.96528 15.7487 7.54376C15.6952 7.47593 15.627 7.42112 15.5492 7.38343C15.4715 7.34575 15.3862 7.32617 15.2998 7.32617C15.2134 7.32617 15.1281 7.34575 15.0504 7.38343C14.9726 7.42112 14.9044 7.47593 14.8509 7.54376C14.4896 8.05285 5.99365 20.0906 5.99365 25.0448C5.99622 27.5122 6.97752 29.8777 8.72221 31.6224C10.4669 33.3671 12.8325 34.3484 15.2998 34.351H15.36C14.506 32.5718 13.1758 28.8056 15.475 26.1615ZM13.6247 31.4222C13.5875 31.5292 13.5181 31.6219 13.4259 31.6876C13.3337 31.7533 13.2233 31.7888 13.1101 31.789C13.0484 31.7887 12.9873 31.7776 12.9295 31.7561C11.5425 31.264 10.3417 30.3548 9.49197 29.1532C8.64222 27.9516 8.1851 26.5165 8.18333 25.0448C8.18333 24.8996 8.24101 24.7604 8.34367 24.6577C8.44633 24.5551 8.58557 24.4974 8.73076 24.4974C8.87594 24.4974 9.01518 24.5551 9.11784 24.6577C9.2205 24.7604 9.27818 24.8996 9.27818 25.0448C9.28005 26.2893 9.66663 27.5028 10.385 28.519C11.1033 29.5352 12.1182 30.3045 13.2908 30.7215C13.428 30.7702 13.5402 30.8714 13.6028 31.0027C13.6654 31.1341 13.6733 31.285 13.6247 31.4222Z" fill="#02110B"/>
<path d="M28.81 21.5906C28.7971 21.4869 28.7548 21.389 28.6883 21.3085C28.6217 21.2279 28.5335 21.168 28.434 21.1358C28.3346 21.1036 28.2281 21.1005 28.1269 21.1268C28.0257 21.153 27.9342 21.2076 27.8629 21.2841C27.1567 22.0724 25.0492 22.8059 23.0128 23.5176C20.3414 24.4427 17.5824 25.4062 16.3014 26.8787C14.0953 29.4188 16.1426 33.5463 16.6463 34.466C16.8434 34.0828 17.0678 33.705 17.3032 33.3383C19.9253 29.2819 24.3922 26.3368 24.6331 26.178C24.7544 26.1002 24.9015 26.0734 25.0423 26.1035C25.1832 26.1337 25.3065 26.2183 25.3852 26.339C25.464 26.4596 25.4918 26.6065 25.4627 26.7476C25.4336 26.8887 25.3499 27.0126 25.2298 27.0922C24.6252 27.3433 17.3079 32.9287 16.8271 37.3072C16.8021 37.4481 16.8333 37.5932 16.914 37.7114C16.9948 37.8295 17.1186 37.9114 17.259 37.9393C17.3994 37.9672 17.5451 37.939 17.6649 37.8607C17.7847 37.7824 17.8691 37.6603 17.8999 37.5205C18.0806 36.6677 18.379 35.8442 18.7867 35.0736C18.929 35.0791 19.0768 35.0845 19.2356 35.0845C26.3089 35.1359 29.9153 29.8079 28.81 21.5906Z" fill="#02110B"/>
<path d="M48.9111 11.3105H52.6318L58.1104 26.9697L63.5889 11.3105H67.3096L59.6045 32.6387H56.6162L48.9111 11.3105ZM46.9043 11.3105H50.6104L51.2842 26.5742V32.6387H46.9043V11.3105ZM65.6104 11.3105H69.3311V32.6387H64.9365V26.5742L65.6104 11.3105ZM80.2148 32.9316C78.9844 32.9316 77.8809 32.7363 76.9043 32.3457C75.9277 31.9453 75.0977 31.3936 74.4141 30.6904C73.7402 29.9873 73.2227 29.1719 72.8613 28.2441C72.5 27.3066 72.3193 26.3105 72.3193 25.2559V24.6699C72.3193 23.4688 72.4902 22.3701 72.832 21.374C73.1738 20.3779 73.6621 19.5137 74.2969 18.7812C74.9414 18.0488 75.7227 17.4873 76.6406 17.0967C77.5586 16.6963 78.5938 16.4961 79.7461 16.4961C80.8691 16.4961 81.8652 16.6816 82.7344 17.0527C83.6035 17.4238 84.3311 17.9512 84.917 18.6348C85.5127 19.3184 85.9619 20.1387 86.2646 21.0957C86.5674 22.043 86.7188 23.0977 86.7188 24.2598V26.0176H74.1211V23.2051H82.5732V22.8828C82.5732 22.2969 82.4658 21.7744 82.251 21.3154C82.0459 20.8467 81.7334 20.4756 81.3135 20.2021C80.8936 19.9287 80.3564 19.792 79.7021 19.792C79.1455 19.792 78.667 19.9141 78.2666 20.1582C77.8662 20.4023 77.5391 20.7441 77.2852 21.1836C77.041 21.623 76.8555 22.1406 76.7285 22.7363C76.6113 23.3223 76.5527 23.9668 76.5527 24.6699V25.2559C76.5527 25.8906 76.6406 26.4766 76.8164 27.0137C77.002 27.5508 77.2607 28.0146 77.5928 28.4053C77.9346 28.7959 78.3447 29.0986 78.8232 29.3135C79.3115 29.5283 79.8633 29.6357 80.4785 29.6357C81.2402 29.6357 81.9482 29.4893 82.6025 29.1963C83.2666 28.8936 83.8379 28.4395 84.3164 27.834L86.3672 30.0605C86.0352 30.5391 85.5811 30.998 85.0049 31.4375C84.4385 31.877 83.7549 32.2383 82.9541 32.5215C82.1533 32.7949 81.2402 32.9316 80.2148 32.9316ZM98.4814 29.1816V10.1387H102.729V32.6387H98.9062L98.4814 29.1816ZM88.4619 24.9043V24.5967C88.4619 23.3857 88.5986 22.2871 88.8721 21.3008C89.1455 20.3047 89.5459 19.4502 90.0732 18.7373C90.6006 18.0244 91.25 17.4727 92.0215 17.082C92.793 16.6914 93.6719 16.4961 94.6582 16.4961C95.5859 16.4961 96.3965 16.6914 97.0898 17.082C97.793 17.4727 98.3887 18.0293 98.877 18.752C99.375 19.4648 99.7754 20.3096 100.078 21.2861C100.381 22.2529 100.601 23.3125 100.737 24.4648V25.1387C100.601 26.2422 100.381 27.2676 100.078 28.2148C99.7754 29.1621 99.375 29.9922 98.877 30.7051C98.3887 31.4082 97.793 31.9551 97.0898 32.3457C96.3867 32.7363 95.5664 32.9316 94.6289 32.9316C93.6426 32.9316 92.7637 32.7314 91.9922 32.3311C91.2305 31.9307 90.5859 31.3691 90.0586 30.6465C89.541 29.9238 89.1455 29.0742 88.8721 28.0977C88.5986 27.1211 88.4619 26.0566 88.4619 24.9043ZM92.6807 24.5967V24.9043C92.6807 25.5586 92.7295 26.1689 92.8271 26.7354C92.9346 27.3018 93.1055 27.8047 93.3398 28.2441C93.584 28.6738 93.8965 29.0107 94.2773 29.2549C94.668 29.4893 95.1416 29.6064 95.6982 29.6064C96.4209 29.6064 97.0166 29.4453 97.4854 29.123C97.9541 28.791 98.3105 28.3369 98.5547 27.7607C98.8086 27.1846 98.9551 26.5205 98.9941 25.7686V23.8496C98.9648 23.2344 98.877 22.6826 98.7305 22.1943C98.5938 21.6963 98.3887 21.2715 98.1152 20.9199C97.8516 20.5684 97.5195 20.2949 97.1191 20.0996C96.7285 19.9043 96.2646 19.8066 95.7275 19.8066C95.1807 19.8066 94.7119 19.9336 94.3213 20.1875C93.9307 20.4316 93.6133 20.7686 93.3691 21.1982C93.1348 21.6279 92.959 22.1357 92.8418 22.7217C92.7344 23.2979 92.6807 23.9229 92.6807 24.5967ZM110.479 16.7891V32.6387H106.245V16.7891H110.479ZM105.981 12.6582C105.981 12.043 106.196 11.5352 106.626 11.1348C107.056 10.7344 107.632 10.5342 108.354 10.5342C109.067 10.5342 109.639 10.7344 110.068 11.1348C110.508 11.5352 110.728 12.043 110.728 12.6582C110.728 13.2734 110.508 13.7813 110.068 14.1816C109.639 14.582 109.067 14.7822 108.354 14.7822C107.632 14.7822 107.056 14.582 106.626 14.1816C106.196 13.7813 105.981 13.2734 105.981 12.6582ZM118.418 10.1387V32.6387H114.185V10.1387H118.418ZM126.357 16.7891V32.6387H122.124V16.7891H126.357ZM121.86 12.6582C121.86 12.043 122.075 11.5352 122.505 11.1348C122.935 10.7344 123.511 10.5342 124.233 10.5342C124.946 10.5342 125.518 10.7344 125.947 11.1348C126.387 11.5352 126.606 12.043 126.606 12.6582C126.606 13.2734 126.387 13.7813 125.947 14.1816C125.518 14.582 124.946 14.7822 124.233 14.7822C123.511 14.7822 122.935 14.582 122.505 14.1816C122.075 13.7813 121.86 13.2734 121.86 12.6582ZM133.242 16.7891L135.864 21.6084L138.56 16.7891H143.057L138.574 24.5381L143.262 32.6387H138.75L135.894 27.541L133.037 32.6387H128.525L133.213 24.5381L128.73 16.7891H133.242Z" fill="#02110B"/>
</svg>
