<svg width="144" height="44" viewBox="0 0 144 44" fill="none" xmlns="http://www.w3.org/2000/svg">
<g clip-path="url(#clip0_9988_81)">
<path d="M19.0191 4.5C16.5213 4.5 14.048 4.99201 11.7404 5.94793C9.43273 6.90385 7.33599 8.30495 5.56988 10.0712C3.80377 11.8375 2.40287 13.9344 1.44719 16.2421C0.491499 18.5499 -0.00025292 21.0232 9.75874e-08 23.521V39.5019H15.979C21.0237 39.5019 25.8617 37.4979 29.4289 33.9308C32.996 30.3637 35 25.5256 35 20.4809V4.5H19.0191ZM25.5309 24.6172H20.1153V30.0348H14.8827V24.6172H9.46716V19.3847H14.8827V13.9691H20.1153V19.3847H25.5213L25.5309 24.6172Z" fill="#185EC8"/>
<path opacity="0.3" d="M9.8711e-08 23.521V39.5019L14.8827 24.6172H9.46716V19.3847H14.8827V13.9691H20.1153V19.375L34.9904 4.5H18.9998C13.9587 4.50511 9.12573 6.51141 5.56307 10.078C2.00041 13.6447 -0.000513142 18.4798 9.8711e-08 23.521Z" fill="white"/>
</g>
<path d="M48.9111 10.6719H52.6318L58.1104 26.3311L63.5889 10.6719H67.3096L59.6045 32H56.6162L48.9111 10.6719ZM46.9043 10.6719H50.6104L51.2842 25.9355V32H46.9043V10.6719ZM65.6104 10.6719H69.3311V32H64.9365V25.9355L65.6104 10.6719ZM80.2148 32.293C78.9844 32.293 77.8809 32.0977 76.9043 31.707C75.9277 31.3066 75.0977 30.7549 74.4141 30.0518C73.7402 29.3486 73.2227 28.5332 72.8613 27.6055C72.5 26.668 72.3193 25.6719 72.3193 24.6172V24.0312C72.3193 22.8301 72.4902 21.7314 72.832 20.7354C73.1738 19.7393 73.6621 18.875 74.2969 18.1426C74.9414 17.4102 75.7227 16.8486 76.6406 16.458C77.5586 16.0576 78.5938 15.8574 79.7461 15.8574C80.8691 15.8574 81.8652 16.043 82.7344 16.4141C83.6035 16.7852 84.3311 17.3125 84.917 17.9961C85.5127 18.6797 85.9619 19.5 86.2646 20.457C86.5674 21.4043 86.7188 22.459 86.7188 23.6211V25.3789H74.1211V22.5664H82.5732V22.2441C82.5732 21.6582 82.4658 21.1357 82.251 20.6768C82.0459 20.208 81.7334 19.8369 81.3135 19.5635C80.8936 19.29 80.3564 19.1533 79.7021 19.1533C79.1455 19.1533 78.667 19.2754 78.2666 19.5195C77.8662 19.7637 77.5391 20.1055 77.2852 20.5449C77.041 20.9844 76.8555 21.502 76.7285 22.0977C76.6113 22.6836 76.5527 23.3281 76.5527 24.0312V24.6172C76.5527 25.252 76.6406 25.8379 76.8164 26.375C77.002 26.9121 77.2607 27.376 77.5928 27.7666C77.9346 28.1572 78.3447 28.46 78.8232 28.6748C79.3115 28.8896 79.8633 28.9971 80.4785 28.9971C81.2402 28.9971 81.9482 28.8506 82.6025 28.5576C83.2666 28.2549 83.8379 27.8008 84.3164 27.1953L86.3672 29.4219C86.0352 29.9004 85.5811 30.3594 85.0049 30.7988C84.4385 31.2383 83.7549 31.5996 82.9541 31.8828C82.1533 32.1562 81.2402 32.293 80.2148 32.293ZM98.4814 28.543V9.5H102.729V32H98.9062L98.4814 28.543ZM88.4619 24.2656V23.958C88.4619 22.7471 88.5986 21.6484 88.8721 20.6621C89.1455 19.666 89.5459 18.8115 90.0732 18.0986C90.6006 17.3857 91.25 16.834 92.0215 16.4434C92.793 16.0527 93.6719 15.8574 94.6582 15.8574C95.5859 15.8574 96.3965 16.0527 97.0898 16.4434C97.793 16.834 98.3887 17.3906 98.877 18.1133C99.375 18.8262 99.7754 19.6709 100.078 20.6475C100.381 21.6143 100.601 22.6738 100.737 23.8262V24.5C100.601 25.6035 100.381 26.6289 100.078 27.5762C99.7754 28.5234 99.375 29.3535 98.877 30.0664C98.3887 30.7695 97.793 31.3164 97.0898 31.707C96.3867 32.0977 95.5664 32.293 94.6289 32.293C93.6426 32.293 92.7637 32.0928 91.9922 31.6924C91.2305 31.292 90.5859 30.7305 90.0586 30.0078C89.541 29.2852 89.1455 28.4355 88.8721 27.459C88.5986 26.4824 88.4619 25.418 88.4619 24.2656ZM92.6807 23.958V24.2656C92.6807 24.9199 92.7295 25.5303 92.8271 26.0967C92.9346 26.6631 93.1055 27.166 93.3398 27.6055C93.584 28.0352 93.8965 28.3721 94.2773 28.6162C94.668 28.8506 95.1416 28.9678 95.6982 28.9678C96.4209 28.9678 97.0166 28.8066 97.4854 28.4844C97.9541 28.1523 98.3105 27.6982 98.5547 27.1221C98.8086 26.5459 98.9551 25.8818 98.9941 25.1299V23.2109C98.9648 22.5957 98.877 22.0439 98.7305 21.5557C98.5938 21.0576 98.3887 20.6328 98.1152 20.2812C97.8516 19.9297 97.5195 19.6562 97.1191 19.4609C96.7285 19.2656 96.2646 19.168 95.7275 19.168C95.1807 19.168 94.7119 19.2949 94.3213 19.5488C93.9307 19.793 93.6133 20.1299 93.3691 20.5596C93.1348 20.9893 92.959 21.4971 92.8418 22.083C92.7344 22.6592 92.6807 23.2842 92.6807 23.958ZM110.479 16.1504V32H106.245V16.1504H110.479ZM105.981 12.0195C105.981 11.4043 106.196 10.8965 106.626 10.4961C107.056 10.0957 107.632 9.89551 108.354 9.89551C109.067 9.89551 109.639 10.0957 110.068 10.4961C110.508 10.8965 110.728 11.4043 110.728 12.0195C110.728 12.6348 110.508 13.1426 110.068 13.543C109.639 13.9434 109.067 14.1436 108.354 14.1436C107.632 14.1436 107.056 13.9434 106.626 13.543C106.196 13.1426 105.981 12.6348 105.981 12.0195ZM118.418 9.5V32H114.185V9.5H118.418ZM126.357 16.1504V32H122.124V16.1504H126.357ZM121.86 12.0195C121.86 11.4043 122.075 10.8965 122.505 10.4961C122.935 10.0957 123.511 9.89551 124.233 9.89551C124.946 9.89551 125.518 10.0957 125.947 10.4961C126.387 10.8965 126.606 11.4043 126.606 12.0195C126.606 12.6348 126.387 13.1426 125.947 13.543C125.518 13.9434 124.946 14.1436 124.233 14.1436C123.511 14.1436 122.935 13.9434 122.505 13.543C122.075 13.1426 121.86 12.6348 121.86 12.0195ZM133.242 16.1504L135.864 20.9697L138.56 16.1504H143.057L138.574 23.8994L143.262 32H138.75L135.894 26.9023L133.037 32H128.525L133.213 23.8994L128.73 16.1504H133.242Z" fill="#071C3C"/>
<defs>
<clipPath id="clip0_9988_81">
<rect width="35" height="35" fill="white" transform="translate(0 4.5)"/>
</clipPath>
</defs>
</svg>
