<svg width="145" height="44" viewBox="0 0 145 44" fill="none" xmlns="http://www.w3.org/2000/svg">
<g clip-path="url(#clip0_10061_4051)">
<path d="M19.508 4.5C17.0102 4.5 14.5369 4.99201 12.2293 5.94793C9.92162 6.90385 7.82488 8.30495 6.05877 10.0712C4.29266 11.8375 2.89176 13.9344 1.93608 16.2421C0.980391 18.5499 0.488639 21.0232 0.488892 23.521V39.5019H16.4679C21.5126 39.5019 26.3506 37.4979 29.9178 33.9308C33.4849 30.3637 35.4889 25.5256 35.4889 20.4809V4.5H19.508ZM26.0198 24.6172H20.6042V30.0348H15.3716V24.6172H9.95605V19.3847H15.3716V13.9691H20.6042V19.3847H26.0102L26.0198 24.6172Z" fill="#185EC8"/>
<path opacity="0.3" d="M0.488892 23.521V39.5019L15.3716 24.6172H9.95605V19.3847H15.3716V13.9691H20.6042V19.375L35.4793 4.5H19.4887C14.4475 4.50511 9.61462 6.51141 6.05196 10.078C2.4893 13.6447 0.488378 18.4798 0.488892 23.521Z" fill="white"/>
</g>
<path d="M49.4 10.6719H53.1207L58.5992 26.3311L64.0778 10.6719H67.7985L60.0934 32H57.1051L49.4 10.6719ZM47.3932 10.6719H51.0992L51.7731 25.9355V32H47.3932V10.6719ZM66.0992 10.6719H69.8199V32H65.4254V25.9355L66.0992 10.6719ZM80.7037 32.293C79.4733 32.293 78.3698 32.0977 77.3932 31.707C76.4166 31.3066 75.5865 30.7549 74.903 30.0518C74.2291 29.3486 73.7115 28.5332 73.3502 27.6055C72.9889 26.668 72.8082 25.6719 72.8082 24.6172V24.0312C72.8082 22.8301 72.9791 21.7314 73.3209 20.7354C73.6627 19.7393 74.151 18.875 74.7858 18.1426C75.4303 17.4102 76.2115 16.8486 77.1295 16.458C78.0475 16.0576 79.0826 15.8574 80.235 15.8574C81.358 15.8574 82.3541 16.043 83.2233 16.4141C84.0924 16.7852 84.8199 17.3125 85.4059 17.9961C86.0016 18.6797 86.4508 19.5 86.7535 20.457C87.0563 21.4043 87.2076 22.459 87.2076 23.6211V25.3789H74.61V22.5664H83.0621V22.2441C83.0621 21.6582 82.9547 21.1357 82.7399 20.6768C82.5348 20.208 82.2223 19.8369 81.8024 19.5635C81.3824 19.29 80.8453 19.1533 80.191 19.1533C79.6344 19.1533 79.1559 19.2754 78.7555 19.5195C78.3551 19.7637 78.028 20.1055 77.774 20.5449C77.5299 20.9844 77.3444 21.502 77.2174 22.0977C77.1002 22.6836 77.0416 23.3281 77.0416 24.0312V24.6172C77.0416 25.252 77.1295 25.8379 77.3053 26.375C77.4908 26.9121 77.7496 27.376 78.0817 27.7666C78.4235 28.1572 78.8336 28.46 79.3121 28.6748C79.8004 28.8896 80.3522 28.9971 80.9674 28.9971C81.7291 28.9971 82.4371 28.8506 83.0914 28.5576C83.7555 28.2549 84.3268 27.8008 84.8053 27.1953L86.8561 29.4219C86.524 29.9004 86.0699 30.3594 85.4938 30.7988C84.9274 31.2383 84.2438 31.5996 83.443 31.8828C82.6422 32.1562 81.7291 32.293 80.7037 32.293ZM98.9703 28.543V9.5H103.218V32H99.3951L98.9703 28.543ZM88.9508 24.2656V23.958C88.9508 22.7471 89.0875 21.6484 89.361 20.6621C89.6344 19.666 90.0348 18.8115 90.5621 18.0986C91.0895 17.3857 91.7389 16.834 92.5104 16.4434C93.2819 16.0527 94.1608 15.8574 95.1471 15.8574C96.0748 15.8574 96.8854 16.0527 97.5787 16.4434C98.2819 16.834 98.8776 17.3906 99.3658 18.1133C99.8639 18.8262 100.264 19.6709 100.567 20.6475C100.87 21.6143 101.089 22.6738 101.226 23.8262V24.5C101.089 25.6035 100.87 26.6289 100.567 27.5762C100.264 28.5234 99.8639 29.3535 99.3658 30.0664C98.8776 30.7695 98.2819 31.3164 97.5787 31.707C96.8756 32.0977 96.0553 32.293 95.1178 32.293C94.1315 32.293 93.2526 32.0928 92.4811 31.6924C91.7194 31.292 91.0748 30.7305 90.5475 30.0078C90.0299 29.2852 89.6344 28.4355 89.361 27.459C89.0875 26.4824 88.9508 25.418 88.9508 24.2656ZM93.1696 23.958V24.2656C93.1696 24.9199 93.2184 25.5303 93.316 26.0967C93.4235 26.6631 93.5944 27.166 93.8287 27.6055C94.0729 28.0352 94.3854 28.3721 94.7662 28.6162C95.1569 28.8506 95.6305 28.9678 96.1871 28.9678C96.9098 28.9678 97.5055 28.8066 97.9742 28.4844C98.443 28.1523 98.7994 27.6982 99.0436 27.1221C99.2975 26.5459 99.444 25.8818 99.483 25.1299V23.2109C99.4537 22.5957 99.3658 22.0439 99.2194 21.5557C99.0826 21.0576 98.8776 20.6328 98.6041 20.2812C98.3405 19.9297 98.0084 19.6562 97.608 19.4609C97.2174 19.2656 96.7535 19.168 96.2164 19.168C95.6696 19.168 95.2008 19.2949 94.8102 19.5488C94.4196 19.793 94.1022 20.1299 93.858 20.5596C93.6237 20.9893 93.4479 21.4971 93.3307 22.083C93.2233 22.6592 93.1696 23.2842 93.1696 23.958ZM110.967 16.1504V32H106.734V16.1504H110.967ZM106.47 12.0195C106.47 11.4043 106.685 10.8965 107.115 10.4961C107.545 10.0957 108.121 9.89551 108.843 9.89551C109.556 9.89551 110.128 10.0957 110.557 10.4961C110.997 10.8965 111.216 11.4043 111.216 12.0195C111.216 12.6348 110.997 13.1426 110.557 13.543C110.128 13.9434 109.556 14.1436 108.843 14.1436C108.121 14.1436 107.545 13.9434 107.115 13.543C106.685 13.1426 106.47 12.6348 106.47 12.0195ZM118.907 9.5V32H114.673V9.5H118.907ZM126.846 16.1504V32H122.613V16.1504H126.846ZM122.349 12.0195C122.349 11.4043 122.564 10.8965 122.994 10.4961C123.423 10.0957 124 9.89551 124.722 9.89551C125.435 9.89551 126.006 10.0957 126.436 10.4961C126.876 10.8965 127.095 11.4043 127.095 12.0195C127.095 12.6348 126.876 13.1426 126.436 13.543C126.006 13.9434 125.435 14.1436 124.722 14.1436C124 14.1436 123.423 13.9434 122.994 13.543C122.564 13.1426 122.349 12.6348 122.349 12.0195ZM133.731 16.1504L136.353 20.9697L139.048 16.1504H143.546L139.063 23.8994L143.751 32H139.239L136.382 26.9023L133.526 32H129.014L133.702 23.8994L129.219 16.1504H133.731Z" fill="white"/>
<defs>
<clipPath id="clip0_10061_4051">
<rect width="35" height="35" fill="white" transform="translate(0.488892 4.5)"/>
</clipPath>
</defs>
</svg>
