<svg width="125" height="45" viewBox="0 0 125 45" fill="none" xmlns="http://www.w3.org/2000/svg">
<path d="M16.0907 26.0971C17.5742 24.3891 20.4701 23.3873 23.2729 22.4184C23.6834 22.2761 24.1268 22.1173 24.5757 21.9586C22.5886 16.2928 16.6655 7.90083 16.3644 7.4793C16.3109 7.41148 16.2427 7.35667 16.1649 7.31898C16.0872 7.2813 16.0019 7.26172 15.9155 7.26172C15.8291 7.26172 15.7438 7.2813 15.6661 7.31898C15.5884 7.35667 15.5202 7.41148 15.4666 7.4793C15.1054 7.9884 6.60938 20.0262 6.60938 24.9803C6.61195 27.4477 7.59324 29.8133 9.33793 31.558C11.0826 33.3027 13.4482 34.2839 15.9155 34.2865H15.9758C15.1217 32.5074 13.7915 28.7411 16.0907 26.0971ZM14.2404 31.3578C14.2033 31.4647 14.1338 31.5575 14.0416 31.6232C13.9494 31.6889 13.8391 31.7243 13.7258 31.7245C13.6642 31.7243 13.603 31.7132 13.5452 31.6917C12.1582 31.1996 10.9574 30.2904 10.1077 29.0888C9.25794 27.8872 8.80082 26.4521 8.79906 24.9803C8.79906 24.8352 8.85673 24.6959 8.95939 24.5933C9.06205 24.4906 9.20129 24.4329 9.34648 24.4329C9.49166 24.4329 9.6309 24.4906 9.73356 24.5933C9.83623 24.6959 9.8939 24.8352 9.8939 24.9803C9.89578 26.2248 10.2824 27.4383 11.0007 28.4545C11.719 29.4708 12.734 30.2401 13.9065 30.6571C14.0437 30.7058 14.1559 30.8069 14.2185 30.9383C14.2812 31.0697 14.289 31.2206 14.2404 31.3578Z" fill="white"/>
<path d="M29.4267 21.5262C29.4138 21.4225 29.3715 21.3246 29.305 21.244C29.2384 21.1635 29.1502 21.1036 29.0507 21.0714C28.9513 21.0392 28.8448 21.036 28.7436 21.0623C28.6424 21.0886 28.5509 21.1431 28.4796 21.2196C27.7734 22.0079 25.6659 22.7415 23.6295 23.4531C20.9581 24.3782 18.1991 25.3417 16.9181 26.8143C14.712 29.3543 16.7593 33.4818 17.263 34.4015C17.4601 34.0183 17.6845 33.6406 17.9199 33.2739C20.542 29.2175 25.0089 26.2723 25.2498 26.1136C25.3711 26.0357 25.5182 26.0089 25.659 26.0391C25.7999 26.0692 25.9232 26.1539 26.0019 26.2745C26.0807 26.3952 26.1085 26.5421 26.0794 26.6832C26.0503 26.8243 25.9666 26.9481 25.8465 27.0278C25.2419 27.2789 17.9246 32.8643 17.4438 37.2427C17.4188 37.3836 17.45 37.5288 17.5307 37.6469C17.6115 37.7651 17.7353 37.8469 17.8757 37.8748C18.0161 37.9028 18.1618 37.8745 18.2816 37.7963C18.4014 37.718 18.4858 37.5959 18.5166 37.4561C18.6973 36.6033 18.9957 35.7797 19.4034 35.0091C19.5457 35.0146 19.6935 35.0201 19.8523 35.0201C26.9256 35.0715 30.532 29.7434 29.4267 21.5262Z" fill="white"/>
<path d="M48.7451 13.5117H51.7217L56.1045 26.0391L60.4873 13.5117H63.4639L57.2998 30.5742H54.9092L48.7451 13.5117ZM47.1396 13.5117H50.1045L50.6436 25.7227V30.5742H47.1396V13.5117ZM62.1045 13.5117H65.0811V30.5742H61.5654V25.7227L62.1045 13.5117ZM73.7881 30.8086C72.8037 30.8086 71.9209 30.6523 71.1396 30.3398C70.3584 30.0195 69.6943 29.5781 69.1475 29.0156C68.6084 28.4531 68.1943 27.8008 67.9053 27.0586C67.6162 26.3086 67.4717 25.5117 67.4717 24.668V24.1992C67.4717 23.2383 67.6084 22.3594 67.8818 21.5625C68.1553 20.7656 68.5459 20.0742 69.0537 19.4883C69.5693 18.9023 70.1943 18.4531 70.9287 18.1406C71.6631 17.8203 72.4912 17.6602 73.4131 17.6602C74.3115 17.6602 75.1084 17.8086 75.8037 18.1055C76.499 18.4023 77.0811 18.8242 77.5498 19.3711C78.0264 19.918 78.3857 20.5742 78.6279 21.3398C78.8701 22.0977 78.9912 22.9414 78.9912 23.8711V25.2773H68.9131V23.0273H75.6748V22.7695C75.6748 22.3008 75.5889 21.8828 75.417 21.5156C75.2529 21.1406 75.0029 20.8438 74.667 20.625C74.3311 20.4062 73.9014 20.2969 73.3779 20.2969C72.9326 20.2969 72.5498 20.3945 72.2295 20.5898C71.9092 20.7852 71.6475 21.0586 71.4443 21.4102C71.249 21.7617 71.1006 22.1758 70.999 22.6523C70.9053 23.1211 70.8584 23.6367 70.8584 24.1992V24.668C70.8584 25.1758 70.9287 25.6445 71.0693 26.0742C71.2178 26.5039 71.4248 26.875 71.6904 27.1875C71.9639 27.5 72.292 27.7422 72.6748 27.9141C73.0654 28.0859 73.5068 28.1719 73.999 28.1719C74.6084 28.1719 75.1748 28.0547 75.6982 27.8203C76.2295 27.5781 76.6865 27.2148 77.0693 26.7305L78.71 28.5117C78.4443 28.8945 78.0811 29.2617 77.6201 29.6133C77.167 29.9648 76.6201 30.2539 75.9795 30.4805C75.3389 30.6992 74.6084 30.8086 73.7881 30.8086ZM88.4014 27.8086V12.5742H91.7998V30.5742H88.7412L88.4014 27.8086ZM80.3857 24.3867V24.1406C80.3857 23.1719 80.4951 22.293 80.7139 21.5039C80.9326 20.707 81.2529 20.0234 81.6748 19.4531C82.0967 18.8828 82.6162 18.4414 83.2334 18.1289C83.8506 17.8164 84.5537 17.6602 85.3428 17.6602C86.085 17.6602 86.7334 17.8164 87.2881 18.1289C87.8506 18.4414 88.3271 18.8867 88.7178 19.4648C89.1162 20.0352 89.4365 20.7109 89.6787 21.4922C89.9209 22.2656 90.0967 23.1133 90.2061 24.0352V24.5742C90.0967 25.457 89.9209 26.2773 89.6787 27.0352C89.4365 27.793 89.1162 28.457 88.7178 29.0273C88.3271 29.5898 87.8506 30.0273 87.2881 30.3398C86.7256 30.6523 86.0693 30.8086 85.3193 30.8086C84.5303 30.8086 83.8271 30.6484 83.21 30.3281C82.6006 30.0078 82.085 29.5586 81.6631 28.9805C81.249 28.4023 80.9326 27.7227 80.7139 26.9414C80.4951 26.1602 80.3857 25.3086 80.3857 24.3867ZM83.7607 24.1406V24.3867C83.7607 24.9102 83.7998 25.3984 83.8779 25.8516C83.9639 26.3047 84.1006 26.707 84.2881 27.0586C84.4834 27.4023 84.7334 27.6719 85.0381 27.8672C85.3506 28.0547 85.7295 28.1484 86.1748 28.1484C86.7529 28.1484 87.2295 28.0195 87.6045 27.7617C87.9795 27.4961 88.2646 27.1328 88.46 26.6719C88.6631 26.2109 88.7803 25.6797 88.8115 25.0781V23.543C88.7881 23.0508 88.7178 22.6094 88.6006 22.2188C88.4912 21.8203 88.3271 21.4805 88.1084 21.1992C87.8975 20.918 87.6318 20.6992 87.3115 20.543C86.999 20.3867 86.6279 20.3086 86.1982 20.3086C85.7607 20.3086 85.3857 20.4102 85.0732 20.6133C84.7607 20.8086 84.5068 21.0781 84.3115 21.4219C84.124 21.7656 83.9834 22.1719 83.8896 22.6406C83.8037 23.1016 83.7607 23.6016 83.7607 24.1406ZM97.999 17.8945V30.5742H94.6123V17.8945H97.999ZM94.4014 14.5898C94.4014 14.0977 94.5732 13.6914 94.917 13.3711C95.2607 13.0508 95.7217 12.8906 96.2998 12.8906C96.8701 12.8906 97.3271 13.0508 97.6709 13.3711C98.0225 13.6914 98.1982 14.0977 98.1982 14.5898C98.1982 15.082 98.0225 15.4883 97.6709 15.8086C97.3271 16.1289 96.8701 16.2891 96.2998 16.2891C95.7217 16.2891 95.2607 16.1289 94.917 15.8086C94.5732 15.4883 94.4014 15.082 94.4014 14.5898ZM104.351 12.5742V30.5742H100.964V12.5742H104.351ZM110.702 17.8945V30.5742H107.315V17.8945H110.702ZM107.104 14.5898C107.104 14.0977 107.276 13.6914 107.62 13.3711C107.964 13.0508 108.425 12.8906 109.003 12.8906C109.573 12.8906 110.03 13.0508 110.374 13.3711C110.726 13.6914 110.901 14.0977 110.901 14.5898C110.901 15.082 110.726 15.4883 110.374 15.8086C110.03 16.1289 109.573 16.2891 109.003 16.2891C108.425 16.2891 107.964 16.1289 107.62 15.8086C107.276 15.4883 107.104 15.082 107.104 14.5898ZM116.21 17.8945L118.308 21.75L120.464 17.8945H124.062L120.476 24.0938L124.226 30.5742H120.616L118.331 26.4961L116.046 30.5742H112.437L116.187 24.0938L112.601 17.8945H116.21Z" fill="white"/>
</svg>
