<svg width="80" height="80" viewBox="0 0 80 80" fill="none" xmlns="http://www.w3.org/2000/svg">
<rect width="80" height="80" rx="10" fill="#185EC8"/>
<g clip-path="url(#clip0_9941_21150)">
<path d="M42.0191 22C39.5213 22 37.048 22.492 34.7404 23.4479C32.4327 24.4038 30.336 25.8049 28.5699 27.5712C26.8038 29.3375 25.4029 31.4344 24.4472 33.7421C23.4915 36.0499 22.9997 38.5232 23 41.021V57.0019H38.979C44.0237 57.0019 48.8617 54.9979 52.4289 51.4308C55.996 47.8637 58 43.0256 58 37.9809V22H42.0191ZM48.5309 42.1172H43.1153V47.5348H37.8827V42.1172H32.4672V36.8847H37.8827V31.4691H43.1153V36.8847H48.5213L48.5309 42.1172Z" fill="white"/>
<path opacity="0.3" d="M23 41.021V57.0019L37.8827 42.1172H32.4672V36.8847H37.8827V31.4691H43.1153V36.875L57.9904 22H41.9998C36.9587 22.0051 32.1257 24.0114 28.5631 27.578C25.0004 31.1447 22.9995 35.9798 23 41.021Z" fill="white"/>
</g>
<defs>
<clipPath id="clip0_9941_21150">
<rect width="35" height="35" fill="white" transform="translate(23 22)"/>
</clipPath>
</defs>
</svg>
