<svg width="100" height="100" viewBox="0 0 100 100" fill="none" xmlns="http://www.w3.org/2000/svg">
<circle cx="50" cy="50" r="50" fill="white"/>
<path d="M31.25 61C30.7227 61 30.2539 60.8242 29.9023 60.4727L20.5273 51.0977C19.7656 50.3945 19.7656 49.1641 20.5273 48.4609L29.9023 39.0859C30.6055 38.3242 31.8359 38.3242 32.5391 39.0859C33.3008 39.7891 33.3008 41.0195 32.5391 41.7227L24.5117 49.75L32.5391 57.8359C33.3008 58.5391 33.3008 59.7695 32.5391 60.4727C32.1875 60.8242 31.7188 61 31.25 61Z" fill="#2A2A2A"/>
<path d="M68.75 61C68.2227 61 67.7539 60.8242 67.4023 60.4727C66.6406 59.7695 66.6406 58.5391 67.4023 57.8359L75.4297 49.75L67.4023 41.7227C66.6406 41.0195 66.6406 39.7891 67.4023 39.0859C68.1055 38.3242 69.3359 38.3242 70.0391 39.0859L79.4141 48.4609C80.1758 49.1641 80.1758 50.3945 79.4141 51.0977L70.0391 60.4727C69.6875 60.8242 69.2188 61 68.75 61Z" fill="#2A2A2A"/>
</svg>
