<svg width="45" height="46" viewBox="0 0 45 46" fill="none" xmlns="http://www.w3.org/2000/svg">
    <g clip-path="url(#clip0_9989_21938)">
        <path d="M37.002 4.65283H30.9559C30.6838 3.88563 29.9511 3.33447 29.0918 3.33447H25.7297C25.4234 1.83198 24.0916 0.697754 22.5 0.697754C20.9084 0.697754 19.5766 1.83198 19.2703 3.33447H15.9082C15.0489 3.33447 14.3162 3.88563 14.0441 4.65283H7.99805C6.90768 4.65283 6.02051 5.53991 6.02051 6.63037V43.7202C6.02051 44.8107 6.90759 45.6978 7.99805 45.6978H30.4102V44.3794H7.99805C7.63462 44.3794 7.33887 44.0837 7.33887 43.7202V6.63037C7.33887 6.26686 7.63453 5.97119 7.99805 5.97119H13.9308V7.28955H8.65723V11.2446H9.97559V8.60791H14.0441C14.3162 9.3752 15.0489 9.92627 15.9083 9.92627H29.0918C29.9511 9.92627 30.6838 9.37511 30.9559 8.60791H35.0244V36.4692H29.751V41.7427H9.97559V12.5629H8.65723V43.061H30.6832L36.3428 37.4014V7.28955H31.0692V5.97119H37.002C37.3655 5.97119 37.6611 6.26686 37.6611 6.63037V43.7202C37.6611 44.0837 37.3655 44.3794 37.002 44.3794H34.3652V45.6978H37.002C38.0924 45.6978 38.9795 44.8107 38.9795 43.7202V6.63037C38.9795 5.53991 38.0924 4.65283 37.002 4.65283ZM34.0922 37.7876L31.0693 40.8104V37.7876H34.0922ZM29.7509 7.94873C29.7509 8.31216 29.4552 8.60791 29.0917 8.60791H15.9082C15.5448 8.60791 15.249 8.31216 15.249 7.94873V5.31201C15.249 4.94858 15.5447 4.65283 15.9082 4.65283H20.5225V3.99365C20.5225 2.90319 21.4095 2.01611 22.5 2.01611C23.5905 2.01611 24.4775 2.90319 24.4775 3.99365V4.65283H29.0918C29.4552 4.65283 29.751 4.94858 29.751 5.31201V7.94873H29.7509Z" fill="white"/>
        <path d="M31.7285 44.3794H33.0469V45.6978H31.7285V44.3794Z" fill="white"/>
        <path d="M19.8633 11.9038V14.5405H17.2266V19.814H19.8633V22.4507H25.1367V19.814H27.7734V14.5405H25.1367V11.9038H19.8633ZM26.4551 15.8588V18.4955H23.8184V21.1322H21.1816V18.4955H18.5449V15.8588H21.1816V13.2221H23.8184V15.8588H26.4551Z" fill="white"/>
        <path d="M12.6123 34.3158H16.5674V30.3607H12.6123V34.3158ZM13.9307 31.6791H15.249V32.9974H13.9307V31.6791Z" fill="white"/>
        <path d="M19.2041 25.7465H32.3878V27.0648H19.2041V25.7465Z" fill="white"/>
        <path d="M16.5674 24.4281H12.6123V28.3832H16.5674V24.4281ZM15.249 27.0648H13.9307V25.7465H15.249V27.0648Z" fill="white"/>
        <path d="M19.2041 37.6116H28.4328V38.9299H19.2041V37.6116Z" fill="white"/>
        <path d="M19.2041 31.6791H32.3878V32.9974H19.2041V31.6791Z" fill="white"/>
        <path d="M12.6123 40.2483H16.5674V36.2932H12.6123V40.2483ZM13.9307 37.6116H15.249V38.9299H13.9307V37.6116Z" fill="white"/>
        <path d="M32.3877 13.0123H33.7061V14.3307H32.3877V13.0123Z" fill="white"/>
        <path d="M32.3877 10.3756H33.7061V11.694H32.3877V10.3756Z" fill="white"/>
    </g>
    <defs>
        <clipPath id="clip0_9989_21938">
            <rect width="45" height="45" fill="white" transform="translate(0 0.697754)"/>
        </clipPath>
    </defs>
</svg>