<svg width="36" height="40" viewBox="0 0 36 40" fill="none" xmlns="http://www.w3.org/2000/svg">
<path d="M35.9688 23.7343C35.9688 21.4362 34.8551 19.3493 33.0048 18.0772C33.8448 17.0183 34.3125 15.6978 34.3125 14.328C34.3125 12.2141 33.1917 10.2555 31.4087 9.1707C31.4694 8.86367 31.5 8.55055 31.5 8.2343C31.5 5.5807 29.3411 3.4218 26.6875 3.4218C26.3567 3.4218 26.0313 3.45469 25.7134 3.52008C25.3534 1.52125 23.601 0 21.5 0C20.0554 0 18.7758 0.719062 18 1.81813C17.2242 0.719062 15.9446 0 14.5 0C12.3987 0 10.6463 1.52156 10.2864 3.5207C10.1502 3.49266 10.0126 3.47055 9.87391 3.45438C9.44531 3.40492 9.05742 3.71141 9.0075 4.14C8.9575 4.56859 9.26453 4.95648 9.69305 5.00641C10.0295 5.04555 10.3559 5.13703 10.6637 5.27797C10.6668 5.27945 10.6696 5.28125 10.6727 5.28273C11.2863 5.56555 11.7892 6.02422 12.127 6.60938C12.2717 6.86 12.5343 7.00016 12.8044 7.00016C12.9369 7.00016 13.0712 6.96633 13.1942 6.89539C13.5679 6.67961 13.6959 6.20187 13.4802 5.82812C13.0674 5.1132 12.4878 4.52609 11.7873 4.10727C11.8776 2.68898 13.0595 1.5625 14.5 1.5625C15.9991 1.5625 17.2188 2.78211 17.2188 4.28125V14.3633C15.5963 13.1541 13.2809 13.2834 11.8073 14.7522C10.677 15.8788 10.3137 17.3496 10.7567 19.0054C11.3077 21.0645 12.9602 22.8969 13.8962 23.8059C15.0186 24.8957 16.2548 25.7855 17.2188 26.2162V34.6406C17.2188 36.7342 15.5155 38.4375 13.4219 38.4375C11.978 38.4375 10.688 37.6166 10.0489 36.3839C10.4856 36.3645 10.9195 36.2984 11.3422 36.1851C11.759 36.0734 12.0063 35.6451 11.8946 35.2283C11.783 34.8116 11.3548 34.5642 10.9378 34.6759C10.3275 34.8394 9.68164 34.8713 9.05891 34.7693C9.05688 34.769 9.05484 34.7689 9.05281 34.7686C6.90586 34.4171 5.34352 32.5952 5.31383 30.422C5.83352 30.5459 6.36602 30.6093 6.90617 30.6093C7.50664 30.6093 8.10523 30.5305 8.68547 30.3751C9.10219 30.2634 9.34961 29.835 9.23789 29.4183C9.12633 29.0016 8.69867 28.7541 8.28109 28.8658C7.83274 28.9859 7.37008 29.0468 6.90609 29.0468C6.22055 29.0468 5.55062 28.9166 4.915 28.6595C4.91 28.6575 4.90484 28.6562 4.89984 28.6543C2.89102 27.8345 1.59375 25.9052 1.59375 23.7343C1.59375 21.6922 2.73195 19.8661 4.56516 18.9645C4.56953 18.9625 4.57406 18.9611 4.57844 18.959C4.88313 18.8104 5.20375 18.6905 5.53125 18.6028C5.94805 18.4912 6.19539 18.0627 6.08367 17.646C5.97195 17.2292 5.54336 16.9817 5.12687 17.0936C4.88398 17.1587 4.64461 17.2389 4.40977 17.3305C3.66789 16.5121 3.25 15.4422 3.25 14.3281C3.25 12.8598 3.98023 11.4926 5.16023 10.665C5.57953 11.381 6.17906 11.9823 6.90633 12.4021C7.02938 12.4731 7.16367 12.5069 7.29617 12.5069C7.56617 12.5069 7.82883 12.3667 7.97352 12.1161C8.1893 11.7424 8.06125 11.2646 7.68758 11.0488C7.01406 10.66 6.50164 10.0416 6.24492 9.30766C6.24375 9.30437 6.24219 9.30133 6.24102 9.29805C6.16445 9.07695 6.11172 8.84734 6.08461 8.61523C6.03461 8.18664 5.64578 7.87969 5.2182 7.92969C4.78961 7.97961 4.48266 8.3675 4.53266 8.79609C4.54727 8.92156 4.56687 9.04656 4.59148 9.17063C2.80844 10.2555 1.6875 12.2142 1.6875 14.3281C1.6875 15.6979 2.15523 17.0184 2.99516 18.0773C1.14492 19.3493 0.03125 21.4362 0.03125 23.7343C0.03125 26.3445 1.48031 28.685 3.77117 29.8545C3.75711 30.0225 3.75 30.1912 3.75 30.3593C3.75 31.7997 4.26602 33.1941 5.20312 34.2856C6.01531 35.2316 7.09875 35.9012 8.29492 36.2052C8.97383 38.4327 11.0518 40 13.4219 40C15.3583 40 17.0581 38.9677 18 37.4245C18.9419 38.9677 20.6416 40 22.5781 40C24.9482 40 27.0263 38.4327 27.7051 36.2053C28.9013 35.9013 29.9848 35.2317 30.7969 34.2857C31.7339 33.1941 32.25 31.7998 32.25 30.3594C32.25 30.1912 32.2429 30.0226 32.2288 29.8546C34.5197 28.685 35.9688 26.3445 35.9688 23.7343ZM12.2661 18.6016C11.9676 17.4857 12.1784 16.5884 12.9104 15.8588C13.4145 15.3563 14.0766 15.1051 14.7387 15.1051C15.4008 15.1051 16.0629 15.3563 16.567 15.8588C17.3705 16.6597 18.6293 16.6597 19.4329 15.8588C20.4411 14.8538 22.0814 14.8539 23.0895 15.8588C23.8216 16.5885 24.0323 17.4857 23.7338 18.6016C23.3974 19.859 22.432 21.3091 21.0152 22.6848C19.808 23.8573 18.6612 24.5969 18 24.8516C17.3388 24.5969 16.1921 23.8573 14.9848 22.6848C13.568 21.3091 12.6026 19.859 12.2661 18.6016ZM31.1 28.6544C31.095 28.6563 31.0898 28.6576 31.0848 28.6596C30.4491 28.9166 29.7793 29.0469 29.0938 29.0469C28.6298 29.0469 28.1672 28.9859 27.7188 28.8659C27.3017 28.7544 26.8735 29.0016 26.762 29.4184C26.6502 29.8351 26.8977 30.2635 27.3144 30.3752C27.8947 30.5305 28.4933 30.6094 29.0937 30.6094C29.6338 30.6094 30.1663 30.546 30.686 30.422C30.6564 32.5954 29.0939 34.4173 26.9469 34.7687C26.9449 34.769 26.943 34.769 26.941 34.7693C26.3182 34.8713 25.6724 34.8393 25.062 34.6759C24.6451 34.5642 24.2169 34.8116 24.1052 35.2283C23.9935 35.6451 24.2409 36.0734 24.6577 36.1851C25.0803 36.2984 25.5142 36.3645 25.9509 36.3839C25.312 37.6166 24.0219 38.4375 22.5781 38.4375C20.4845 38.4375 18.7812 36.7342 18.7812 34.6406V26.2162C19.7452 25.7855 20.9815 24.8957 22.1038 23.8059C23.0398 22.8969 24.6924 21.0646 25.2433 19.0054C25.6862 17.3496 25.323 15.8788 24.1927 14.7522C22.7193 13.2834 20.4037 13.1542 18.7812 14.3634V4.28125C18.7812 2.78219 20.0009 1.5625 21.5 1.5625C22.9406 1.5625 24.1225 2.68898 24.2126 4.10719C23.5122 4.52602 22.9326 5.11305 22.5198 5.82805C22.304 6.20172 22.432 6.67953 22.8056 6.89531C22.9287 6.96641 23.063 7.00016 23.1955 7.00016C23.4655 7.00016 23.7281 6.86 23.8729 6.60945C24.2108 6.0243 24.7137 5.56555 25.3272 5.28281C25.3301 5.28148 25.3327 5.27984 25.3355 5.27844C25.7607 5.08352 26.2155 4.98445 26.6875 4.98445C28.4795 4.98445 29.9375 6.44242 29.9375 8.23445C29.9375 8.59844 29.8775 8.9557 29.7596 9.29672C29.7582 9.30047 29.7564 9.30398 29.7551 9.30781C29.4983 10.0419 28.9859 10.6602 28.3125 11.049C27.9388 11.2648 27.8108 11.7425 28.0266 12.1163C28.1712 12.3669 28.4338 12.507 28.7039 12.507C28.8364 12.507 28.9707 12.4732 29.0938 12.4023C29.821 11.9824 30.4205 11.3812 30.8398 10.6651C32.0198 11.4927 32.75 12.8598 32.75 14.3282C32.75 15.4423 32.3321 16.5123 31.5902 17.3305C31.3554 17.2389 31.116 17.1587 30.8731 17.0936C30.4562 16.9817 30.028 17.2293 29.9163 17.646C29.8046 18.0627 30.052 18.4912 30.4688 18.6028C30.7963 18.6906 31.1169 18.8104 31.4216 18.959C31.4259 18.9611 31.4305 18.9625 31.4349 18.9645C33.268 19.8661 34.4062 21.6923 34.4062 23.7343C34.4062 25.9052 33.109 27.8345 31.1 28.6544Z" fill="#02110B"/>
<path d="M7.64539 17.2147C7.85687 17.5811 7.96875 17.9985 7.96875 18.4217C7.96875 19.5121 7.23312 20.4709 6.17984 20.7531C5.76304 20.8648 5.5157 21.2932 5.62742 21.71C5.72093 22.0591 6.03656 22.2892 6.38156 22.2892C6.44843 22.2892 6.51656 22.2806 6.58421 22.2624C8.31945 21.7975 9.53132 20.2181 9.53132 18.4217C9.53132 17.7246 9.34718 17.0372 8.99867 16.4335C8.78304 16.0599 8.30539 15.9317 7.93148 16.1475C7.55773 16.3632 7.42961 16.841 7.64539 17.2147Z" fill="#02110B"/>
<path d="M9.11621 26.1672C9.11621 26.5987 9.46605 26.9485 9.89746 26.9485C11.2284 26.9485 12.3112 28.0313 12.3112 29.3622C12.3112 29.5731 12.2836 29.7833 12.2289 29.987C12.1172 30.4037 12.3646 30.8322 12.7814 30.9438C12.8491 30.9619 12.9171 30.9706 12.984 30.9706C13.329 30.9706 13.6446 30.7404 13.7382 30.3913C13.8281 30.0558 13.8736 29.7095 13.8736 29.3622C13.8736 27.1697 12.0899 25.386 9.89738 25.386C9.46606 25.386 9.11621 25.7358 9.11621 26.1672Z" fill="#02110B"/>
<path d="M15.7702 10.3488C16.0753 10.0437 16.0753 9.54902 15.7702 9.24395C15.4651 8.93887 14.9704 8.93887 14.6653 9.24395C14.2094 9.6998 13.6033 9.9509 12.9585 9.9509C12.3138 9.9509 11.7076 9.6998 11.2517 9.24395C10.9465 8.93887 10.4519 8.93887 10.1468 9.24395C9.8417 9.54902 9.8417 10.0437 10.1468 10.3488C10.8978 11.0998 11.8964 11.5134 12.9584 11.5134C14.0207 11.5135 15.0193 11.0999 15.7702 10.3488Z" fill="#02110B"/>
<path d="M29.8202 20.7532C28.7669 20.4709 28.0312 19.5121 28.0312 18.4217C28.0312 17.9985 28.143 17.5812 28.3546 17.2148C28.5704 16.8411 28.4423 16.3634 28.0687 16.1475C27.695 15.9318 27.2173 16.0599 27.0015 16.4335C26.653 17.0371 26.4688 17.7246 26.4688 18.4217C26.4688 20.2182 27.6807 21.7975 29.4159 22.2625C29.4837 22.2806 29.5516 22.2893 29.6186 22.2893C29.9635 22.2893 30.2792 22.059 30.3727 21.71C30.4843 21.2932 30.237 20.8648 29.8202 20.7532Z" fill="#02110B"/>
<path d="M26.1032 25.386C23.9107 25.386 22.127 27.1697 22.127 29.3622C22.127 29.7096 22.1725 30.0558 22.2624 30.3913C22.3559 30.7404 22.6716 30.9706 23.0166 30.9706C23.0834 30.9706 23.1516 30.9619 23.2192 30.9438C23.636 30.8322 23.8834 30.4037 23.7716 29.987C23.7171 29.7833 23.6894 29.5731 23.6894 29.3622C23.6894 28.0313 24.7722 26.9485 26.1031 26.9485C26.5345 26.9485 26.8844 26.5987 26.8844 26.1672C26.8844 25.7358 26.5346 25.386 26.1032 25.386Z" fill="#02110B"/>
<path d="M25.8532 9.24419C25.5481 8.93911 25.0536 8.93911 24.7483 9.24419C24.2924 9.70005 23.6862 9.95114 23.0415 9.95114C22.3967 9.95114 21.7906 9.70005 21.3347 9.24419C21.0297 8.93911 20.5352 8.93911 20.2298 9.24419C19.9247 9.54927 19.9247 10.044 20.2298 10.349C20.9807 11.1 21.9793 11.5136 23.0414 11.5136C24.1035 11.5136 25.1021 11.1 25.8531 10.349C26.1583 10.044 26.1583 9.54927 25.8532 9.24419Z" fill="#02110B"/>
<path d="M6.46215 6.16504C6.89356 6.16504 7.2434 5.81527 7.2434 5.38379C7.2434 4.95231 6.89356 4.60254 6.46215 4.60254H6.4616C6.0302 4.60254 5.68066 4.95231 5.68066 5.38379C5.68066 5.81527 6.03074 6.16504 6.46215 6.16504Z" fill="#02110B"/>
<path d="M18.7812 21.5625V20.5698C19.2475 20.2991 19.5625 19.7955 19.5625 19.2188C19.5625 18.3572 18.8616 17.6562 18 17.6562C17.1384 17.6562 16.4375 18.3572 16.4375 19.2188C16.4375 19.7956 16.7525 20.2992 17.2188 20.5698V21.5625C17.2188 21.994 17.5686 22.3438 18 22.3438C18.4314 22.3438 18.7812 21.9939 18.7812 21.5625Z" fill="#02110B"/>
</svg>
