<svg width="40" height="40" viewBox="0 0 40 40" fill="none" xmlns="http://www.w3.org/2000/svg">
<path d="M8.95094 19.9333C8.51945 19.9333 8.16992 20.2831 8.16992 20.7146C8.16992 21.1461 8.52 21.4959 8.95148 21.4959C9.38297 21.4959 9.73273 21.1461 9.73273 20.7146C9.73273 20.2831 9.38297 19.9333 8.95148 19.9333H8.95094Z" fill="#02110B"/>
<path d="M37.9688 10.1562C37.9688 4.55608 33.4127 0 27.8126 0C23.8367 0 20.3876 2.29687 18.7211 5.63318C18.5731 5.62834 18.4254 5.62513 18.2789 5.62513C14.7047 5.62513 11.3346 7.01138 8.78953 9.52856C6.2422 12.0481 4.83931 15.3855 4.83931 18.9262C4.83931 19.7373 4.11705 21.2279 2.90736 22.9133C1.78206 24.4814 1.94338 25.5851 2.27682 26.2348C2.62838 26.9198 3.4983 27.7229 5.63024 27.8804V31.2985C5.63024 33.6106 7.52813 35.4915 9.86093 35.4915C11.9001 35.4915 13.023 35.5671 13.5014 35.9806C13.9698 36.3853 14.1176 37.4059 14.2397 39.2698C14.2667 39.6805 14.6076 40 15.0194 40H26.222C26.4381 40 26.6445 39.9105 26.7922 39.7528C26.9399 39.5951 27.0157 39.3833 27.0016 39.1677C26.9026 37.6567 26.8614 36.5435 26.8681 35.5584C26.8709 35.1269 26.5235 34.7748 26.092 34.7719C26.0902 34.7719 26.0884 34.7719 26.0866 34.7719C25.6577 34.7719 25.3085 35.1182 25.3055 35.5479C25.2999 36.3798 25.3267 37.2932 25.3914 38.4375H15.7467C15.6106 36.7376 15.381 35.5397 14.5232 34.7984C13.5849 33.9876 12.1359 33.9291 9.86101 33.9291C8.38977 33.9291 7.19282 32.7491 7.19282 31.2986V30.2518C7.68196 30.2518 8.41203 30.5048 9.14593 30.9285C9.26898 30.9996 9.40328 31.0333 9.53586 31.0333C9.80585 31.0333 10.0684 30.8932 10.2132 30.6425C10.4289 30.2689 10.3009 29.7911 9.92718 29.5753C9.35406 29.2444 8.23672 28.6893 7.19282 28.6893V27.1268C7.19282 26.6953 6.84305 26.3455 6.41157 26.3455C4.95775 26.3455 3.93174 26.0375 3.66697 25.5216C3.47939 25.156 3.66517 24.5375 4.17681 23.8246C5.19189 22.4103 6.4018 20.4125 6.4018 18.9263C6.4018 12.5132 11.6325 7.28575 18.0987 7.19005C17.8114 8.1288 17.6564 9.12481 17.6564 10.1564C17.6564 12.6758 18.5789 14.9837 20.1034 16.7606L19.7628 17.1012L17.9822 16.6561C17.7161 16.5896 17.4344 16.6676 17.2404 16.8616L14.4782 19.6237C14.2792 19.8227 14.2026 20.1134 14.2777 20.3847C14.3528 20.6559 14.5681 20.8658 14.8411 20.9341L16.5961 21.3728L17.0348 23.1277C17.1031 23.4008 17.313 23.616 17.5842 23.6912C17.653 23.7102 17.7232 23.7195 17.7927 23.7195C17.9971 23.7195 18.1967 23.6392 18.3452 23.4907L21.1073 20.7286C21.3013 20.5345 21.3793 20.253 21.3128 19.9867L20.8677 18.2061L21.2082 17.8656C22.9853 19.3899 25.2931 20.3124 27.8126 20.3124C28.5986 20.3124 29.3641 20.2226 30.0993 20.0528C29.9268 21.809 29.354 23.5097 28.4155 25.0236C27.6821 26.2066 27.1077 27.3039 26.6595 28.378C26.4933 28.7762 26.6813 29.2337 27.0795 29.3999C27.1778 29.4409 27.2798 29.4604 27.3801 29.4604C27.6859 29.4604 27.9763 29.2796 28.1013 28.9798C28.5172 27.9833 29.0544 26.9586 29.7435 25.8469C30.9269 23.9379 31.5992 21.7666 31.7033 19.5373C35.3783 18.0073 37.9688 14.3788 37.9688 10.1562ZM18.2161 21.41L17.9983 20.539C17.9283 20.2591 17.7098 20.0405 17.4299 19.9705L16.5589 19.7528L18.0325 18.2791L19.3584 18.6106L19.6898 19.9364L18.2161 21.41ZM27.8126 18.7499C25.724 18.7499 23.8073 18.0006 22.3164 16.7572L23.4264 15.6472C24.6298 16.6105 26.1549 17.1874 27.8126 17.1874C31.6896 17.1874 34.8438 14.0332 34.8438 10.1562C34.8438 6.27919 31.6896 3.12499 27.8126 3.12499C23.9356 3.12499 20.7814 6.27919 20.7814 10.1562C20.7814 11.8139 21.3583 13.3391 22.3215 14.5424L21.2115 15.6524C19.9681 14.1616 19.2189 12.2449 19.2189 10.1563C19.2189 5.41771 23.074 1.56257 27.8126 1.56257C32.5512 1.56257 36.4063 5.41771 36.4063 10.1563C36.4063 14.8949 32.5512 18.7499 27.8126 18.7499ZM22.3439 10.1562C22.3439 7.14075 24.7971 4.68748 27.8126 4.68748C30.828 4.68748 33.2813 7.14075 33.2813 10.1562C33.2813 13.1717 30.828 15.6249 27.8126 15.6249C26.586 15.6249 25.4525 15.2189 24.5392 14.5344L25.66 13.4136C26.2777 13.8231 27.0176 14.0624 27.8126 14.0624C29.9665 14.0624 31.7188 12.3101 31.7188 10.1562C31.7188 8.00231 29.9665 6.24998 27.8126 6.24998C25.6587 6.24998 23.9063 8.00231 23.9063 10.1562C23.9063 10.9512 24.1456 11.6911 24.5552 12.3088L23.4344 13.4296C22.7499 12.5163 22.3439 11.3828 22.3439 10.1562ZM25.4688 10.1562C25.4688 8.86387 26.5202 7.81247 27.8126 7.81247C29.1049 7.81247 30.1563 8.86387 30.1563 10.1562C30.1563 11.4485 29.1049 12.5 27.8126 12.5C27.4512 12.5 27.1088 12.4176 26.8027 12.2709L28.365 10.7086C28.6701 10.4036 28.6701 9.90887 28.365 9.60371C28.0599 9.29856 27.5652 9.29864 27.2601 9.60371L25.6978 11.166C25.5512 10.86 25.4688 10.5176 25.4688 10.1562Z" fill="#02110B"/>
<path d="M26.3801 31.2686H26.3796C25.9481 31.2686 25.5986 31.6183 25.5986 32.0498C25.5986 32.4813 25.9486 32.8311 26.3801 32.8311C26.8116 32.8311 27.1614 32.4813 27.1614 32.0498C27.1614 31.6183 26.8116 31.2686 26.3801 31.2686Z" fill="#02110B"/>
</svg>
