<svg width="40" height="40" viewBox="0 0 40 40" fill="none" xmlns="http://www.w3.org/2000/svg">
<path d="M9.01982 31.2616C8.71475 31.5667 8.71475 32.0614 9.01982 32.3665C9.3249 32.6716 9.81959 32.6716 10.1247 32.3665C10.7591 31.732 11.6027 31.3826 12.5001 31.3826C13.3973 31.3826 14.241 31.732 14.8755 32.3665C15.0281 32.5191 15.228 32.5953 15.4279 32.5953C15.6279 32.5953 15.8279 32.519 15.9804 32.3665C16.2854 32.0614 16.2854 31.5667 15.9804 31.2616C15.0508 30.332 13.8147 29.8201 12.5001 29.8201C11.1854 29.8201 9.94936 30.332 9.01982 31.2616Z" fill="#02110B"/>
<path d="M27.5 0C20.6075 0 15.0001 5.60748 15.0001 12.5C15.0001 13.4533 15.1085 14.398 15.3227 15.3216C14.4153 15.1113 13.4703 15.0002 12.5 15.0002C10.4745 15.0002 8.46169 15.4968 6.67911 16.4365C6.2974 16.6377 6.15107 17.1102 6.35232 17.4919C6.55349 17.8736 7.02607 18.0199 7.40771 17.8187C8.96653 16.997 10.7274 16.5627 12.5 16.5627C18.5309 16.5627 23.4374 21.4692 23.4374 27.5001C23.4374 33.531 18.5309 38.4376 12.5 38.4376C6.46904 38.4376 1.56249 33.531 1.56249 27.5001C1.56249 25.7274 1.99671 23.9667 2.81827 22.4084C3.01952 22.0268 2.87319 21.5542 2.49147 21.353C2.10976 21.1517 1.63726 21.2981 1.43601 21.6798C0.496561 23.4617 0 25.4744 0 27.5C0 34.3925 5.60748 40 12.5 40C19.3924 40 24.9999 34.3926 24.9999 27.5C24.9999 26.5297 24.8887 25.5847 24.6785 24.6773C25.602 24.8915 26.5467 24.9999 27.5 24.9999C34.3926 24.9999 40 19.3924 40 12.5C40 5.60748 34.3926 0 27.5 0ZM27.5 23.4374C26.3507 23.4374 25.2158 23.2573 24.124 22.9028C22.8537 19.7021 20.2979 17.1463 17.0972 15.876C16.7427 14.7842 16.5626 13.6492 16.5626 12.4999C16.5626 6.46896 21.4691 1.56242 27.5 1.56242C33.531 1.56242 38.4375 6.46896 38.4375 12.4999C38.4375 18.5308 33.531 23.4374 27.5 23.4374Z" fill="#02110B"/>
<path d="M4.21269 19.995C4.42526 19.995 4.63706 19.9087 4.79128 19.7391C5.08151 19.4199 5.058 18.9258 4.7387 18.6355C4.41948 18.3454 3.92534 18.3688 3.63511 18.6881L3.63472 18.6885C3.34448 19.0077 3.36823 19.5016 3.68745 19.7918C3.83714 19.9279 4.02519 19.995 4.21269 19.995Z" fill="#02110B"/>
<path d="M5.77943 25.5475L8.74811 27.2615C8.87115 27.3325 9.00545 27.3664 9.13803 27.3664C9.40803 27.3664 9.67061 27.2262 9.81529 26.9756C10.0311 26.6019 9.90303 26.1241 9.52936 25.9084L6.56068 24.1944C6.18717 23.9786 5.70928 24.1067 5.4935 24.4804C5.27772 24.854 5.40576 25.3318 5.77943 25.5475Z" fill="#02110B"/>
<path d="M15.8612 27.3663C15.9937 27.3663 16.1281 27.3326 16.2511 27.2616L19.2199 25.5476C19.5935 25.3319 19.7216 24.8541 19.5058 24.4804C19.2901 24.1066 18.8122 23.9787 18.4386 24.1944L15.4699 25.9084C15.0962 26.1241 14.9681 26.6019 15.1839 26.9756C15.3286 27.2262 15.5912 27.3663 15.8612 27.3663Z" fill="#02110B"/>
<path d="M30.0354 16.1383C28.9696 16.758 28.4819 16.5118 27.744 16.139C26.9415 15.7337 25.8424 15.1783 24.1818 16.1372C23.8081 16.3529 23.6801 16.8307 23.8958 17.2044C24.1117 17.578 24.5893 17.7062 24.963 17.4903C25.892 16.954 26.3239 17.1722 27.0394 17.5337C27.5269 17.7799 28.1192 18.0791 28.8847 18.0791C29.4329 18.0791 30.0701 17.9256 30.8207 17.4892C31.1937 17.2723 31.3204 16.7942 31.1035 16.4212C30.8866 16.0481 30.4087 15.9215 30.0354 16.1383Z" fill="#02110B"/>
<path d="M24.8153 9.4801C24.5995 9.10651 24.1219 8.97838 23.7481 9.19416L20.7794 10.9081C20.4058 11.1239 20.2777 11.6017 20.4935 11.9753C20.6383 12.226 20.9008 12.3661 21.1708 12.3661C21.3033 12.3661 21.4377 12.3323 21.5607 12.2613L24.5294 10.5473C24.903 10.3316 25.031 9.85369 24.8153 9.4801Z" fill="#02110B"/>
<path d="M34.2208 10.9082L31.2521 9.19418C30.8783 8.9784 30.4005 9.10645 30.1849 9.48012C29.9691 9.85379 30.0972 10.3316 30.4708 10.5473L33.4395 12.2613C33.5626 12.3323 33.6969 12.3661 33.8294 12.3661C34.0994 12.3661 34.362 12.226 34.5067 11.9754C34.7225 11.6018 34.5945 11.1239 34.2208 10.9082Z" fill="#02110B"/>
</svg>
